<svg width="268" height="247" viewBox="0 0 268 247" fill="none" xmlns="http://www.w3.org/2000/svg">
<path d="M115.379 239.435C58.7802 227.695 68.2765 204.974 68.2765 204.974L172.241 226.53C172.241 226.53 171.92 251.145 115.321 239.406" fill="#150001"/>
<path d="M116.428 234.541C10.949 212.664 37.7775 126.236 37.7775 126.236L231.491 166.406C231.491 166.406 221.732 256.359 116.253 234.483" fill="url(#paint0_linear_6_236)"/>
<path d="M116.428 234.541C10.949 212.664 37.7775 126.236 37.7775 126.236L231.491 166.406C231.491 166.406 221.732 256.359 116.253 234.483" fill="url(#paint1_radial_6_236)"/>
<path d="M231.52 166.406L221.936 164.425C218.994 179.282 205.42 227.375 151.005 237.862C224.005 235.619 231.52 166.406 231.52 166.406Z" fill="url(#paint2_linear_6_236)"/>
<path d="M47.3904 128.217L37.7775 126.236C37.7775 126.236 11.5898 210.625 112.729 233.725C68.3347 209.431 60.5571 171.009 61.0231 145.345C61.1979 137.102 55.4885 129.906 47.3904 128.217Z" fill="url(#paint3_linear_6_236)"/>
<path d="M231.724 166.464C228.753 180.738 182.961 183.272 129.391 172.174C75.8211 161.075 34.8354 140.51 37.7775 126.236C40.7197 111.962 86.5409 109.428 140.111 120.527C193.68 131.625 234.695 152.191 231.724 166.464Z" fill="url(#paint4_linear_6_236)"/>
<path opacity="0.5" d="M195.137 197.633C175.969 198.711 151.238 196.352 125.517 191.021C99.795 185.69 76.1707 178 58.9841 169.407C42.3509 161.075 33.5828 152.628 34.9228 146.277C34.952 146.103 34.9228 145.899 34.8646 145.753C34.7772 148.054 34.748 150.53 34.8354 153.094C38.098 158.687 46.1087 164.804 58.2558 170.921C62.2466 172.931 66.5578 174.854 71.1895 176.747C86.6283 183.039 105.271 188.545 125.196 192.681C151.063 198.041 175.94 200.401 195.253 199.323C208.537 198.595 218.149 196.235 223.451 192.565C224.092 191.254 224.675 189.943 225.199 188.69C221.587 193.526 210.954 196.759 195.137 197.633Z" fill="#150001"/>
<g opacity="0.5">
<path d="M186.107 216.276C168.279 217.267 145.267 215.082 121.322 210.13C97.3772 205.178 75.4133 198.012 59.421 190.001C47.8565 184.204 40.3992 178.349 37.8649 173.31C38.331 174.999 38.8845 176.689 39.4962 178.408C43.3705 182.631 49.8373 187.059 58.6636 191.487C62.3631 193.351 66.4122 195.157 70.6943 196.905C85.0553 202.76 102.417 207.887 120.943 211.732C145.004 216.713 168.163 218.927 186.165 217.908C196.302 217.354 204.138 215.781 209.381 213.334C210.838 211.761 212.207 210.188 213.46 208.557C209.702 212.752 200.089 215.49 186.107 216.276Z" fill="#150001"/>
</g>
<ellipse cx="134.765" cy="146.331" rx="24.4992" ry="94.6758" transform="rotate(-78.2822 134.765 146.331)" fill="#B2B2B2"/>
<path d="M227.471 165.561C224.733 178.815 180.98 180.942 129.799 170.31C78.5884 159.677 39.3214 140.335 42.0596 127.11C44.7978 113.885 88.5508 111.729 139.732 122.362C190.913 132.994 230.209 152.336 227.471 165.561Z" fill="url(#paint5_linear_6_236)"/>
<path d="M129.799 170.31C163.415 177.272 193.797 178.757 211.479 175.203C209.818 173.776 207.983 172.32 205.944 170.834C197.263 164.513 185.903 155.832 170.988 151.637C159.482 148.404 149.432 143.161 137.431 139.781C131.226 138.034 125.196 136.169 119.283 134.655C111.593 132.703 103.757 132.004 96.7363 130.78C88.813 129.382 81.7636 127.518 75.0637 127.023C68.3347 126.527 61.6057 126.586 56.5372 127.052C49.8956 127.663 45.3513 129.062 42.4966 131.334C47.4195 144.209 83.8027 160.784 129.799 170.31Z" fill="#CBCBCB"/>
<path d="M129.799 170.31C163.415 177.272 193.797 178.757 211.479 175.203C209.818 173.776 207.983 172.32 205.944 170.834C197.263 164.513 185.903 155.832 170.988 151.637C159.482 148.404 149.432 143.161 137.431 139.781C131.226 138.034 125.196 136.169 119.283 134.655C111.593 132.703 103.757 132.004 96.7363 130.78C88.813 129.382 81.7636 127.518 75.0637 127.023C68.3347 126.527 61.6057 126.586 56.5372 127.052C49.8956 127.663 45.3513 129.062 42.4966 131.334C47.4195 144.209 83.8027 160.784 129.799 170.31Z" fill="url(#paint6_linear_6_236)"/>
<path d="M120.302 136.635C120.885 136.781 122.953 137.684 123.274 136.927C123.361 136.723 123.478 136.548 123.652 136.432C120.768 134.917 113.865 130.751 111.796 127.43C110.893 125.974 110.223 124.634 109.612 123.469C107.951 120.235 106.64 117.701 103.058 116.245H103.028C101.222 115.516 99.3871 115.749 98.018 116.885C96.212 118.4 95.5129 121.109 96.1246 124.197C96.6198 126.615 95.979 126.76 93.9107 127.285C92.4251 127.663 90.2986 128.217 89.4539 130.373C89.3956 130.489 89.4247 130.635 89.5413 130.722C89.8034 130.984 90.0656 131.217 90.3569 131.421C90.9978 131.858 91.5221 131.8 92.0756 131.596C92.1629 131.567 92.2212 131.479 92.2503 131.421C92.5125 130.809 93.1534 130.576 94.6681 130.198C96.7072 129.673 100.115 128.829 99.0667 123.644C98.688 121.721 99.0085 119.973 99.9406 119.216C100.465 118.779 101.135 118.721 101.921 119.041H101.951C104.514 120.09 105.446 121.896 106.99 124.867C107.631 126.09 108.359 127.489 109.291 129.033C110.835 131.538 114.214 134.13 117.215 136.082C118.205 136.199 119.254 136.344 120.302 136.635Z" fill="url(#paint7_linear_6_236)"/>
<path opacity="0.3" d="M182.495 164.484C182.495 164.484 171.687 151.812 156.831 152.133C141.975 152.453 116.894 134.305 113.399 140.51C109.903 146.685 79.0545 133.926 76.3454 138.354C73.6364 142.782 58.5471 134.334 55.2846 139.17C52.022 144.005 78.4137 152.919 86.8904 155.308C92.1921 156.793 96.9985 160.58 103.087 163.726C109.204 165.503 115.612 167.164 122.254 168.678C129.799 168.707 132.42 166.173 140.315 169.086C150.656 172.873 159.453 175.64 166.386 174.475C169.736 173.922 177.979 175.669 185.524 177.068C191 177.155 196.098 177.009 200.701 176.66C200.089 171.883 191.146 171.183 182.495 164.484Z" fill="#D28D3C"/>
<path d="M152.258 163.843C152.258 163.377 151.966 162.881 151.588 162.444C148.879 159.269 144.684 159.881 138.305 156.24C135.829 154.9 133.061 153.065 130.44 152.919C128.721 152.832 127.119 153.298 125.371 153.065C124.351 152.919 123.332 152.54 122.312 152.191C120.302 151.55 118.292 151.142 116.253 150.763C113.69 150.268 111.156 149.744 108.592 149.249C104.98 148.55 101.339 147.821 97.785 147.734C96.0955 147.705 94.1438 147.996 93.7651 149.394C93.7068 149.569 93.7068 149.802 93.8233 150.006C93.9399 150.21 94.1146 150.356 94.3186 150.472C98.5133 153.327 103.844 152.977 108.417 155.104C108.854 155.308 109.291 155.541 109.612 155.861C109.845 156.094 110.02 156.356 110.253 156.589C111.214 157.725 112.67 158.454 114.098 158.832C115.525 159.211 116.982 159.328 118.409 159.502C128.779 160.697 139.412 165.503 149.52 165.27C150.801 165.241 152.258 164.921 152.258 163.843Z" fill="url(#paint8_linear_6_236)"/>
<path d="M148.384 170.921C147.714 168.824 145.995 165.911 141.684 163.814C134.023 160.114 120.331 161.25 119.778 161.308C118.875 161.396 118.205 162.182 118.263 163.085C118.292 163.318 118.351 163.522 118.438 163.697C119.545 163.959 120.652 164.134 121.73 164.484C125.517 164.309 134.867 164.192 140.256 166.785C144.334 168.766 145.325 171.562 145.529 173.193C146.636 173.368 147.772 173.543 148.879 173.718C148.85 173.019 148.733 172.028 148.384 170.921Z" fill="url(#paint9_linear_6_236)"/>
<path d="M145.5 23.3204C145.5 23.3204 163.764 34.2441 173.989 41.5266C173.989 41.5266 165.191 53.7611 160.472 58.5675C152.724 66.4908 144.393 70.2777 144.393 70.2777L115.03 47.1486C115.03 47.1486 124.031 43.9152 132.77 36.9532C141.567 29.962 145.5 23.3204 145.5 23.3204Z" fill="url(#paint10_linear_6_236)"/>
<path opacity="0.5" d="M141.771 62.4709C137.343 58.3636 132.624 57.4023 126.128 54.0233C125.051 53.4698 124.206 52.9163 123.565 52.392C121.992 51.0811 122.545 48.576 124.526 48.0808C126.245 47.6438 127.993 47.469 129.799 47.6438C135.333 48.1682 140.023 51.9259 145.325 53.5572C145.674 53.6737 146.053 53.5572 146.257 53.2659C146.519 52.8872 146.257 52.5085 146.024 52.1881C144.509 50.1199 142.995 48.0808 141.48 46.0126C140.577 44.7891 139.645 43.5074 139.12 42.08C138.596 40.6527 138.509 38.9631 139.237 37.6232C139.994 36.2541 141.509 35.4093 143.024 35.0306C146.461 34.1858 150.102 35.2636 153.569 34.5937C155.637 34.1858 157.53 33.1663 159.54 32.5254C159.715 32.4672 159.89 32.438 160.035 32.3798C152.316 27.486 145.412 23.3495 145.412 23.3495C145.412 23.3495 141.48 29.9911 132.712 36.9532C126.478 41.9344 120.098 44.993 116.952 46.3621C116.312 46.6243 115.816 46.8282 115.496 46.9738C115.409 47.003 115.35 47.0321 115.292 47.0612C115.292 47.0612 115.292 47.0612 115.263 47.0612C115.205 47.0904 115.146 47.0904 115.117 47.1195C115.088 47.1486 115.059 47.1486 115.03 47.1486H115.001L144.364 70.2777C144.364 70.2777 146.461 69.3164 149.549 67.3647C146.781 65.9956 143.723 64.277 141.771 62.4709Z" fill="#2D3B1C"/>
<path d="M219.256 106.253L16.9788 0.366105C14.9398 -0.682569 12.2307 0.599144 10.8907 3.22083C9.55074 5.84251 10.1042 8.78463 12.1433 9.8333L216.343 111.904V111.875C217.538 112.487 219.169 111.729 219.985 110.186C220.8 108.642 220.451 106.865 219.256 106.253Z" fill="url(#paint11_linear_6_236)"/>
<path d="M39.0593 11.9306L29.8251 7.09509C27.9025 6.45424 25.5139 7.70682 24.3196 10.0955C23.0961 12.455 23.4748 15.1349 25.1352 16.3001L34.4567 20.9609C32.5924 19.9413 32.0972 17.1449 33.3498 14.698C34.6024 12.2511 37.1367 11.0276 39.0593 11.9306Z" fill="#FF7C66"/>
<path d="M59.5375 22.6796L50.7403 18.077C48.9051 17.4653 46.633 18.6596 45.497 20.9318C44.3318 23.1748 44.7104 25.7091 46.2543 26.8451L55.1098 31.2729C53.3329 30.2824 52.8377 27.6608 54.0611 25.3012C55.2846 22.9709 57.7023 21.8057 59.5375 22.6796Z" fill="#FF7C66"/>
<path d="M215.994 113.798L6.37559 23.3495C4.27824 22.4757 1.65655 23.9321 0.52049 26.6412C-0.615574 29.3503 0.170932 32.2341 2.26828 33.1372L213.547 119.653V119.624C214.8 120.148 216.373 119.274 217.043 117.672C217.713 116.07 217.246 114.322 215.994 113.798Z" fill="url(#paint12_linear_6_236)"/>
<path d="M29.2716 33.2246L19.717 29.0881C17.7653 28.5929 15.4641 30.0203 14.4445 32.4672C13.425 34.9141 13.9785 37.5358 15.6971 38.6136L25.3391 42.5461C23.3874 41.6722 22.6883 38.934 23.7661 36.3706C24.8439 33.8654 27.2908 32.4381 29.2716 33.2246Z" fill="#FF7C66"/>
<path d="M50.5073 42.4005L41.4188 38.4679C39.5545 38.0018 37.3697 39.371 36.4084 41.7013C35.418 44.0317 35.9715 46.5369 37.6028 47.5564L46.7787 51.3142C44.9435 50.4694 44.2444 47.8769 45.2639 45.43C46.2835 43.0122 48.6138 41.6722 50.5073 42.4005Z" fill="#FF7C66"/>
<path d="M57.4984 246.892C57.178 246.746 56.8867 246.513 56.7119 246.193C56.2459 245.406 56.508 244.387 57.2945 243.921C57.3528 243.891 63.0622 240.425 68.4221 233.58C75.5589 224.462 78.7632 213.975 77.9476 202.411C76.7533 186.04 81.8801 175.378 85.2592 168.358C87.0361 164.687 88.4343 161.774 87.91 160.027C87.6187 159.036 87.007 158.541 86.337 158.308L81.9675 156.677C81.7345 155.803 82.3462 155.249 83.2201 155.016C85.3757 154.492 89.7743 154.638 91.0851 159.065C91.959 162.037 90.4151 165.27 88.2595 169.785C84.8222 176.922 80.1323 186.68 81.2684 202.178C82.3753 217.733 76.2872 229.006 70.9856 235.735C65.247 243.018 59.2754 246.601 59.0132 246.746C58.518 247.038 57.9645 247.067 57.4984 246.892Z" fill="url(#paint13_linear_6_236)"/>
<path d="M47.2447 229.094C46.5748 228.831 46.1378 228.103 46.2252 227.346C46.3417 226.443 47.1865 225.802 48.0895 225.918C48.1478 225.918 54.6146 226.676 59.188 222.335C62.8583 218.869 64.4605 213.13 63.9361 205.207C63.0622 191.691 69.966 182.02 75.5298 174.271C80.9771 166.668 83.8901 162.124 80.7732 157.405C80.0449 156.269 79.0254 155.541 77.9185 155.104C73.3451 153.239 69.8204 151.637 69.8204 151.637C70.8108 151.433 72.0342 151.229 73.3451 151.171C77.9476 150.967 81.4723 152.482 83.5114 155.599C88.0556 162.444 83.4823 168.824 78.1806 176.223C72.646 183.942 66.383 192.681 67.1987 205.032C67.7813 213.975 65.8296 220.646 61.4018 224.811C55.6633 230.2 47.973 229.268 47.6526 229.239C47.5069 229.21 47.3904 229.152 47.2447 229.094Z" fill="url(#paint14_linear_6_236)"/>
<path d="M71.8303 216.976C71.306 216.772 70.8982 216.306 70.8108 215.694C70.6651 214.791 71.2769 213.946 72.1799 213.8C72.879 213.684 89.5995 210.829 87.2691 192.71C85.2009 176.66 88.8713 165.154 93.4447 160.842C95.5129 158.891 97.4063 158.745 98.6298 158.978C102.621 159.735 104.106 162.27 104.66 164.163C104.689 164.28 101.339 163.202 98.7463 162.415C98.5132 162.357 98.2802 162.299 98.018 162.241C97.2024 162.095 96.3285 162.707 95.7459 163.26C91.7843 166.989 88.7548 178.145 90.5608 192.273C91.9882 203.401 87.0361 209.577 82.6084 212.781C77.8893 216.218 72.879 217.034 72.6751 217.063C72.4129 217.121 72.1216 217.063 71.8303 216.976Z" fill="url(#paint15_linear_6_236)"/>
<path d="M169.415 148.579C170.988 126.527 158.346 120.876 158.346 120.876L146.257 147.093C146.49 147.355 146.694 147.647 146.898 147.967C147.83 148.346 148.762 148.753 149.723 149.161C149.84 149.161 149.957 149.161 150.102 149.132C151.122 149.074 152.141 149.016 153.132 149.249C154.268 149.511 155.025 150.093 155.841 150.88C156.365 151.404 156.394 151.375 156.977 151.492C157.472 151.608 157.822 151.608 158.229 151.958C158.55 152.22 158.666 152.482 158.929 152.715C159.977 153.065 161.055 153.385 162.133 153.589C162.774 153.618 163.444 153.531 164.084 153.385C165.978 152.919 167.464 151.666 169.182 150.851C169.27 150.123 169.357 149.365 169.415 148.579Z" fill="#F1F1F1"/>
<path d="M138.742 143.015C138.8 143.073 138.858 143.131 138.917 143.219C139.15 143.364 139.383 143.51 139.616 143.656C140.606 144.267 141.567 144.879 142.5 145.578C142.616 145.666 142.733 145.753 142.849 145.84C143.548 145.87 144.218 145.87 144.859 146.103C145.82 146.452 146.374 147.151 146.898 147.967C147.83 148.346 148.763 148.753 149.724 149.161C149.84 149.161 149.957 149.161 150.102 149.132C151.122 149.074 152.142 149.016 153.132 149.249C154.268 149.511 155.025 150.093 155.841 150.88C156.365 151.404 156.395 151.375 156.977 151.492C157.472 151.608 157.822 151.608 158.23 151.958C158.55 152.22 158.667 152.482 158.929 152.715C159.978 153.065 161.055 153.385 162.133 153.589C162.25 153.589 162.337 153.589 162.454 153.589C165.803 143.714 166.503 124.576 158.375 120.847C150.044 117.002 135.392 130.78 130.411 139.723C130.819 139.985 131.255 140.218 131.722 140.422C132.974 141.005 134.227 140.83 135.538 141.063C136.819 141.325 137.868 142.024 138.742 143.015Z" fill="url(#paint16_linear_6_236)"/>
<path d="M151.093 144.588C147.568 142.024 144.509 138.471 143.781 134.189C143.198 130.722 144.189 127.11 145.907 124.022C146.053 123.76 146.199 123.527 146.344 123.265C139.848 127.256 133.382 134.363 130.381 139.723C130.789 139.985 131.226 140.218 131.663 140.422C132.916 141.005 134.168 140.83 135.479 141.063C136.79 141.296 137.809 141.995 138.712 142.986C138.771 143.044 138.829 143.102 138.887 143.19C139.12 143.335 139.353 143.481 139.586 143.627C140.577 144.238 141.538 144.85 142.47 145.549C142.587 145.637 142.703 145.724 142.82 145.811C143.519 145.84 144.189 145.84 144.83 146.074C145.791 146.423 146.344 147.122 146.869 147.938C147.801 148.317 148.733 148.724 149.694 149.132C149.811 149.132 149.927 149.132 150.073 149.103C151.093 149.045 152.112 148.987 153.103 149.22C154.239 149.482 154.996 150.064 155.812 150.851C156.336 151.375 156.365 151.346 156.948 151.463C157.443 151.579 157.792 151.579 158.2 151.929C158.521 152.191 158.637 152.453 158.899 152.686C159.948 153.036 161.026 153.356 162.104 153.56C162.22 153.56 162.308 153.56 162.424 153.56C162.803 152.453 163.152 151.2 163.444 149.89C159.016 149.074 154.763 147.268 151.093 144.588Z" fill="#E5E5E5"/>
<path d="M138.887 143.219C139.12 143.364 139.353 143.51 139.586 143.656C140.577 144.267 141.538 144.879 142.47 145.578C142.587 145.666 142.703 145.753 142.82 145.84C143.519 145.87 144.189 145.87 144.83 146.103C145.791 146.452 146.344 147.151 146.869 147.967C147.801 148.346 148.733 148.753 149.694 149.161C149.811 149.161 149.927 149.161 150.073 149.132C151.093 149.074 152.112 149.016 153.103 149.249C154.239 149.511 154.996 150.093 155.812 150.88C155.899 150.967 155.957 151.026 156.016 151.084C157.181 146.19 154.763 141.005 150.044 138.82C145.5 136.723 140.256 138.063 137.198 141.762C137.751 142.083 138.246 142.52 138.683 143.015C138.8 143.073 138.858 143.131 138.887 143.219Z" fill="url(#paint17_linear_6_236)"/>
<path d="M138.596 142.869C141.975 139.607 147.16 138.558 151.704 140.655C152.666 141.092 153.54 141.675 154.326 142.316C153.277 140.859 151.85 139.636 150.073 138.82C145.529 136.723 140.285 138.063 137.227 141.762C137.751 142.054 138.188 142.432 138.596 142.869Z" fill="#F49100"/>
<path d="M178.504 162.881C180.659 164.309 183.165 164.658 185.553 165.416C187.884 166.144 191 168.008 193.243 168.882C196.448 170.135 200.963 168.096 201.225 167.688C202.565 165.532 203.614 162.881 204.255 159.706C208.566 138.034 196.768 130.809 196.768 130.809L177.309 162.008C177.688 162.328 178.096 162.619 178.504 162.881Z" fill="#F1F1F1"/>
<path d="M166.415 155.249C168.629 156.298 170.872 157.434 172.94 158.745C174.921 159.968 176.581 161.6 178.504 162.881C180.659 164.309 183.165 164.658 185.553 165.416C187.884 166.144 189.835 167.484 192.049 168.416C192.428 168.591 192.836 168.737 193.243 168.853C194.088 167.979 194.846 167.018 195.516 165.969C200.642 157.755 204.983 135.936 196.768 130.809C188.554 125.683 170.872 139.17 165.745 147.384C164.405 149.54 163.589 151.841 163.269 154.201C164.376 154.434 165.454 154.812 166.415 155.249Z" fill="url(#paint18_linear_6_236)"/>
<path d="M192.807 163.114C191.088 160.668 190.622 157.551 189.34 154.842C187.942 151.87 185.553 149.365 182.64 147.85C180.718 146.86 178.504 146.19 177.222 144.442C175.999 142.782 175.999 140.451 176.698 138.5C177.135 137.247 177.834 136.111 178.62 135.033C173.115 138.704 168.104 143.597 165.745 147.384C164.405 149.54 163.589 151.841 163.269 154.201C164.405 154.434 165.483 154.812 166.415 155.249C168.629 156.298 170.872 157.434 172.94 158.745C174.921 159.968 176.581 161.6 178.504 162.881C180.659 164.309 183.165 164.658 185.553 165.416C187.884 166.144 189.835 167.484 192.049 168.416C192.428 168.591 192.836 168.737 193.243 168.853C194.088 167.979 194.846 167.018 195.516 165.969C195.545 165.911 195.574 165.882 195.603 165.824C194.525 165.095 193.564 164.192 192.807 163.114Z" fill="#E5E5E5"/>
<path d="M172.94 158.745C174.921 159.968 176.581 161.6 178.504 162.881C180.659 164.309 183.165 164.658 185.553 165.416C185.874 165.503 186.194 165.62 186.485 165.765C187.767 164.95 188.874 163.814 189.719 162.444C192.865 157.405 191.321 150.763 186.281 147.588C181.242 144.413 174.6 145.986 171.425 151.026C170.26 152.89 169.736 154.958 169.794 156.968C170.901 157.522 171.92 158.133 172.94 158.745Z" fill="url(#paint19_linear_6_236)"/>
<path d="M171.454 153.385C174.892 147.88 182.145 146.19 187.68 149.627C188.583 150.181 189.369 150.851 190.068 151.608C189.224 150.006 187.942 148.637 186.311 147.588C181.271 144.442 174.629 145.986 171.454 151.026C170.289 152.89 169.765 154.958 169.823 156.968C169.881 156.997 169.91 157.026 169.969 157.055C170.26 155.774 170.726 154.55 171.454 153.385Z" fill="#F49100"/>
<path d="M185.903 108.263C183.514 110.71 181.3 113.477 179.407 115.837C178.766 116.652 178.154 117.41 177.601 118.08C177.018 118.779 177.135 119.798 177.834 120.323C178.562 120.847 179.611 120.701 180.222 120.002C180.776 119.332 181.417 118.546 182.058 117.73C184.009 115.312 186.544 112.137 189.107 109.603L185.903 108.263Z" fill="url(#paint20_linear_6_236)"/>
<path d="M197.729 105.758C199.099 106.573 199.943 108.35 200.06 110.623C200.264 114.642 198.137 120.847 191.525 126.236C179.552 135.995 176.173 145.025 173.697 151.637C171.92 156.356 170.668 159.735 167.347 161.978C167.376 162.328 167.638 162.678 168.017 162.969C169.095 163.784 170.639 163.551 171.571 162.59C174.193 159.852 175.503 156.385 176.902 152.599C179.378 146.015 182.436 137.801 193.68 128.625C198.662 124.576 203.847 117.614 203.468 110.302C203.293 107.01 201.895 104.33 199.623 102.991C197.205 101.563 194.613 101.942 191.991 103.369L196.593 105.35C196.972 105.437 197.351 105.554 197.729 105.758Z" fill="url(#paint21_linear_6_236)"/>
<path d="M174.222 103.544C172.037 106.078 169.998 108.962 168.279 111.38C167.697 112.225 167.143 113.011 166.619 113.681C166.094 114.409 166.24 115.458 166.968 115.982C167.697 116.536 168.745 116.361 169.27 115.633C169.794 114.934 170.347 114.118 170.959 113.273C172.736 110.768 175.037 107.477 177.426 104.855L174.222 103.544Z" fill="url(#paint22_linear_6_236)"/>
<path d="M185.815 100.66C187.184 101.476 188.117 103.282 188.35 105.641C188.757 109.778 187.01 116.186 180.834 121.808C169.648 131.975 166.823 141.296 164.754 148.113C163.269 152.977 162.22 156.473 159.074 158.832C159.191 159.852 161.201 160.901 162.453 160.231C165.424 157.259 166.619 153.356 167.901 149.074C169.969 142.258 172.532 133.781 183.048 124.255C187.709 120.031 192.399 112.836 191.641 105.321C191.292 101.942 189.777 99.2036 187.505 97.8345C185.058 96.378 182.553 96.815 180.077 98.3006L184.679 100.281C185.087 100.311 185.466 100.427 185.815 100.66Z" fill="url(#paint23_linear_6_236)"/>
<path d="M163.181 120.701C163.181 120.701 162.424 119.769 162.133 118.225C161.754 116.215 162.366 114.118 163.91 111.992C167.027 107.739 169.648 104.68 171.862 102.583L168.512 101.214C165.861 103.923 163.385 107.127 161.23 110.04C157.035 115.779 159.016 120.905 160.647 122.828C161.23 123.527 162.278 123.614 162.978 123.003C163.677 122.42 163.764 121.401 163.181 120.701Z" fill="url(#paint24_linear_6_236)"/>
<path d="M181.242 98.6793C182.582 99.4949 183.514 101.272 183.747 103.631C184.184 107.884 182.407 114.439 176.144 120.119C164.958 130.285 162.133 139.607 160.065 146.423C158.462 151.754 157.326 155.424 153.423 157.813C153.656 159.269 157.122 159.765 157.851 158.483C160.764 155.512 161.958 151.637 163.24 147.384C165.308 140.568 167.871 132.091 178.387 122.566C183.077 118.284 187.825 111.001 187.039 103.282C186.689 99.8445 185.233 97.1937 182.931 95.8246C180.426 94.3389 177.717 94.6594 175.008 96.0576L180.397 98.3297C180.688 98.4171 180.98 98.5336 181.242 98.6793Z" fill="url(#paint25_linear_6_236)"/>
<path d="M144.713 155.075C144.917 156.182 146.723 157.609 148.879 156.793C153.947 153.88 155.579 149.336 157.414 144.209C159.773 137.655 162.715 129.499 173.785 120.381C181.504 114.002 183.805 106.399 183.368 101.418C183.077 98.155 181.679 95.6789 179.407 94.3972C176.756 92.9116 173.668 92.8825 170.61 94.1933L176.669 96.815C177.047 96.9315 177.426 97.0772 177.805 97.2811C179.086 98.0093 179.902 99.5823 180.077 101.709C180.63 108.03 175.911 114.351 171.687 117.818C159.919 127.518 156.686 136.519 154.326 143.073C152.229 148.899 150.772 152.919 144.713 155.075Z" fill="url(#paint26_linear_6_236)"/>
<path d="M167.114 100.631L163.851 99.291C163.56 99.6114 163.269 99.9319 163.007 100.281C158.375 105.962 155.025 108.729 154.938 108.787C154.239 109.37 154.122 110.389 154.676 111.118C155.258 111.817 156.278 111.933 157.006 111.38C157.152 111.263 160.676 108.409 165.57 102.379C166.065 101.767 166.59 101.184 167.114 100.631Z" fill="url(#paint27_linear_6_236)"/>
<path d="M99.5328 147.763C101.543 148.258 103.611 148.229 105.446 149.423C106.611 150.181 107.573 150.822 108.971 151.055C110.136 151.229 111.301 151.259 112.466 151.579C115.001 152.22 117.36 153.997 120.098 153.502C121.118 153.327 122.021 152.832 122.866 152.249C123.798 151.637 124.526 151.142 124.992 150.268C123.128 147.705 119.487 144.996 114.913 143.044C109.932 140.947 105.097 140.277 101.951 140.976L99.9406 140.131L98.6006 143.277C98.018 144.588 98.3967 146.132 99.5328 147.763Z" fill="#A65200"/>
<path d="M109.029 151.055C110.165 151.23 111.33 151.259 112.437 151.55C114.972 152.191 117.331 153.968 120.069 153.473C121.089 153.298 121.992 152.803 122.837 152.22C124.06 151.404 124.876 150.822 125.313 149.394C125.546 148.579 125.779 147.85 126.565 147.501C124.817 144.792 121.031 141.908 116.195 139.869C108.592 136.665 101.281 136.752 99.8824 140.102C98.6006 143.161 102.591 147.821 109.029 151.055Z" fill="url(#paint28_linear_6_236)"/>
<path d="M109.35 149.103C110.282 149.627 111.272 150.093 112.233 150.501C115.525 151.899 118.962 152.715 121.846 152.861C122.079 152.744 122.312 152.599 122.545 152.453C118.758 152.424 113.836 151.084 109.553 148.724C106.116 146.831 103.961 144.559 103.902 142.753C103.873 142.024 104.252 141.413 104.98 140.976C107.048 139.694 112.088 140.51 116.195 142.753C118.351 143.918 119.749 145.404 119.749 146.51C119.749 146.947 119.545 147.326 119.108 147.588C117.797 148.375 114.622 147.88 112.029 146.452C110.69 145.724 109.816 144.792 109.786 144.122C109.786 143.86 109.903 143.656 110.165 143.51C110.981 143.015 113.02 143.364 114.622 144.238C115.583 144.763 116.02 145.316 116.02 145.666C116.02 145.753 115.991 145.87 115.816 145.986C115.379 146.248 114.156 146.132 113.049 145.52C112.466 145.2 112.204 144.85 112.204 144.675C112.204 144.646 112.204 144.588 112.292 144.53C112.554 144.384 113.311 144.471 113.981 144.821C114.098 144.879 114.214 144.85 114.272 144.734C114.331 144.617 114.302 144.501 114.185 144.442C113.515 144.064 112.525 143.86 112.059 144.151C111.855 144.267 111.738 144.471 111.767 144.675C111.767 145.083 112.175 145.52 112.845 145.899C114.01 146.54 115.438 146.744 116.049 146.365C116.312 146.19 116.457 145.957 116.457 145.637C116.457 145.054 115.846 144.384 114.826 143.831C113.02 142.84 110.864 142.52 109.932 143.102C109.524 143.335 109.32 143.685 109.35 144.122C109.379 144.996 110.282 145.986 111.826 146.831C114.593 148.346 117.914 148.841 119.37 147.967C119.953 147.617 120.244 147.122 120.244 146.51C120.215 145.229 118.758 143.656 116.457 142.374C112.233 140.044 107.019 139.257 104.805 140.597C103.931 141.121 103.494 141.879 103.524 142.782C103.524 144.704 105.796 147.122 109.35 149.103Z" fill="#A65200"/>
<path d="M87.7935 138.587L88.2304 134.917L85.8709 134.625C83.3075 132.266 78.3845 130.285 72.5877 129.615C66.7909 128.916 61.5475 129.673 58.4889 131.334L56.1293 131.043L55.8089 133.752C55.8963 133.839 55.9837 133.955 56.0711 134.043C56.4498 134.596 56.4789 135.15 56.6245 135.762C57.1197 136.14 57.5858 136.548 58.081 136.985C58.2558 137.131 58.4015 137.335 58.5762 137.509C59.2171 137.888 59.7706 138.383 60.3823 138.849C60.6153 138.878 60.8484 138.908 61.1397 138.995C61.4601 139.082 61.6931 139.228 61.897 139.403C61.9844 139.403 62.0718 139.432 62.1592 139.461C63.1205 139.694 63.907 140.189 64.7226 140.655C64.9265 140.743 65.1305 140.83 65.3344 140.918C65.48 141.005 65.6257 141.092 65.7713 141.18C66.1209 141.325 66.4996 141.471 66.8782 141.529C68.8008 141.908 70.6651 142.578 72.5877 142.927C73.0829 143.015 73.5781 143.102 74.0442 143.219C74.5394 143.219 75.0637 143.19 75.6172 143.219C76.8698 143.306 78.2097 143.627 79.5206 143.656C84.1814 142.957 87.473 141.121 87.7935 138.587Z" fill="#A65200"/>
<path d="M88.2304 134.917C87.7643 138.82 80.1906 141.121 71.3351 140.044C62.4796 138.966 55.6924 134.946 56.1585 131.072C56.6246 127.197 64.1983 124.867 73.0538 125.945C81.9092 126.993 88.6965 131.013 88.2304 134.917Z" fill="url(#paint29_linear_6_236)"/>
<path d="M88.2013 135.092C88.2013 135.033 88.2304 134.975 88.2304 134.917C88.2304 134.829 88.2595 134.713 88.2595 134.625C88.1721 134.567 88.0265 134.567 87.9391 134.655C85.1426 137.713 76.5493 138.791 68.8008 137.043C64.6644 136.111 61.7514 134.392 61.1688 132.528C60.9358 131.771 61.1105 131.043 61.7514 130.373C63.5283 128.421 68.9756 127.751 73.9277 128.858C76.4911 129.44 78.3845 130.547 78.7632 131.683C78.9089 132.149 78.7923 132.586 78.4137 132.994C77.3067 134.218 73.8403 134.625 70.7234 133.926C69.0921 133.548 67.9269 132.878 67.6939 132.179C67.6065 131.916 67.6647 131.683 67.8978 131.421C68.5969 130.664 70.8108 130.402 72.7333 130.839C73.8694 131.101 74.5103 131.567 74.5976 131.887C74.6268 131.975 74.6559 132.12 74.4811 132.266C74.1024 132.674 72.8207 132.907 71.4808 132.616C70.7816 132.47 70.403 132.179 70.3447 132.004C70.3447 131.975 70.3156 131.916 70.403 131.829C70.6069 131.596 71.4225 131.45 72.2381 131.625C72.3838 131.654 72.5003 131.567 72.5294 131.45C72.5586 131.334 72.4712 131.188 72.3547 131.159C71.539 130.984 70.4612 131.043 70.0243 131.509C69.8495 131.713 69.7912 131.916 69.8786 132.149C69.9951 132.557 70.5777 132.907 71.3642 133.111C72.7916 133.431 74.3063 133.227 74.8598 132.616C75.0929 132.353 75.1802 132.033 75.0929 131.742C74.9181 131.13 74.0733 130.606 72.8499 130.343C70.6943 129.848 68.3639 130.169 67.5191 131.072C67.1695 131.45 67.0821 131.858 67.1987 132.295C67.49 133.198 68.7425 133.956 70.5777 134.392C73.9277 135.15 77.5106 134.684 78.7632 133.315C79.2584 132.761 79.4041 132.149 79.2293 131.538C78.8215 130.227 76.8115 129.003 74.0442 128.363C68.9465 127.227 63.2953 127.955 61.4018 130.023C60.6736 130.839 60.4405 131.742 60.7318 132.674C61.2853 134.392 63.6157 136.024 66.9656 137.043C67.5191 137.218 68.1017 137.364 68.7425 137.509C76.4911 139.286 85.1718 138.179 88.2013 135.092Z" fill="#A65200"/>
<path d="M258.523 91.1638C255.319 91.7464 253.775 95.9702 253.775 95.9702C253.775 95.9702 233.88 98.9415 233.239 81.9296C232.685 67.8308 226.218 66.6365 222.286 69.3456C218.819 71.7342 214.217 85.3087 223.422 96.9315C232.627 108.554 250.484 102.612 254.97 98.6502C254.97 98.6502 266.301 97.1063 267.321 91.659C267.292 91.659 263.475 90.2608 258.523 91.1638Z" fill="#FFD0A4"/>
<path d="M267.291 91.659C267.291 91.659 263.475 90.2608 258.523 91.1638C255.319 91.7464 253.775 95.9702 253.775 95.9702C253.775 95.9702 252.115 96.2033 249.755 96.1741C250.076 98.0967 249.581 100.107 248.823 101.913C251.532 100.951 253.717 99.728 254.911 98.6793C254.94 98.6502 266.272 97.0771 267.291 91.659Z" fill="url(#paint30_linear_6_236)"/>
<path d="M233.326 83.2114C233.297 82.8035 233.239 82.3666 233.239 81.9296C232.685 67.8308 226.218 66.6365 222.286 69.3456C219.868 71.006 216.868 78.1719 218.47 86.3282C225.17 89.3577 230.763 85.5417 233.326 83.2114Z" fill="url(#paint31_linear_6_236)"/>
<path d="M242.24 94.8341C239.502 93.8437 236.909 92.1251 235.19 89.2121C232.248 96.2906 226.073 96.3489 222.519 95.708C222.81 96.1159 223.102 96.4945 223.393 96.9024C226.859 101.272 231.549 103.165 236.297 103.602C239.414 101.767 241.337 97.4267 242.24 94.8341Z" fill="url(#paint32_linear_6_236)"/>
<path d="M92.0756 90.4938C93.9399 91.6299 93.9107 94.6594 93.9107 94.6594C93.9107 94.6594 105.767 101.359 110.282 90.7268C114.039 81.9296 118.409 82.7453 120.244 85.4252C121.846 87.7847 121.497 97.4558 112.874 102.583C104.252 107.71 94.3768 99.6406 92.5125 96.0576C92.5125 96.0576 85.7253 92.329 86.3952 88.6586C86.4244 88.6878 89.1626 88.7169 92.0756 90.4938Z" fill="#FFD0A4"/>
<path d="M86.4244 88.6878C86.4244 88.6878 89.1626 88.7169 92.0755 90.4938C93.9399 91.6299 93.9107 94.6594 93.9107 94.6594C93.9107 94.6594 94.9011 95.2128 96.3868 95.7372C95.7459 96.8732 95.542 98.2715 95.5711 99.5823C94.0855 98.3006 93.0077 97.0189 92.5125 96.0576C92.5416 96.0867 85.7544 92.3581 86.4244 88.6878Z" fill="url(#paint33_linear_6_236)"/>
<path d="M109.932 91.5425C110.049 91.2803 110.194 91.0181 110.311 90.756C114.069 81.9588 118.438 82.7744 120.273 85.4543C121.409 87.0856 121.555 92.3581 118.584 97.1063C113.603 97.3976 111.01 93.6398 109.932 91.5425Z" fill="url(#paint34_linear_6_236)"/>
<path d="M101.514 96.7567C103.494 96.7858 105.534 96.3198 107.31 94.9215C107.456 100.107 111.359 101.651 113.748 102.087C113.486 102.262 113.195 102.437 112.903 102.612C109.641 104.534 106.233 104.593 103.116 103.748C101.63 101.796 101.455 98.5919 101.514 96.7567Z" fill="url(#paint35_linear_6_236)"/>
<path d="M135.625 164.192C127.119 161.192 113.806 160.988 113.253 160.959C113.107 160.959 113.049 161.046 113.107 161.221C113.515 161.571 113.923 161.92 114.302 162.27C115.059 162.59 115.845 162.823 116.37 163.056C118.409 163.988 120.681 163.93 122.691 164.921C126.624 165.357 131.051 166.086 134.518 167.309C137.984 168.533 139.557 170.572 140.285 172.349C141.509 172.553 142.732 172.786 143.927 172.989C143.257 169.873 141.072 166.086 135.625 164.192Z" fill="url(#paint36_linear_6_236)"/>
<path d="M174.746 169.61C174.746 169.61 172.008 167.542 171.367 167.513C170.726 167.455 164.638 166.96 164.551 167.542C164.551 167.6 164.551 167.688 164.609 167.775C165.424 167.659 166.24 167.659 167.056 168.037C167.988 168.474 168.745 169.203 169.532 169.873C171.746 169.989 174.833 169.989 174.746 169.61Z" fill="url(#paint37_linear_6_236)"/>
<path d="M59.8871 142.491C60.8192 143.015 61.7805 143.394 62.7418 143.743C62.5962 143.161 59.3919 141.092 59.0423 140.859C58.6636 140.626 56.0711 140.714 56.0711 140.714C55.9254 140.83 56.4206 141.325 57.1198 141.879C58.081 141.704 58.9549 141.966 59.8871 142.491Z" fill="url(#paint38_linear_6_236)"/>
<path d="M96.5324 133.985C96.5907 133.664 96.6781 133.286 96.7363 132.907C96.2411 132.586 95.8042 132.353 95.6877 132.295C95.4255 132.149 93.7651 132.674 93.7651 132.674C93.5321 132.965 95.8333 134.48 96.2994 134.626C96.3285 134.626 96.3285 134.626 96.3576 134.655C96.445 134.422 96.4742 134.189 96.5324 133.985Z" fill="url(#paint39_linear_6_236)"/>
<path d="M134.518 148.637C135.013 148.608 135.479 148.579 136.003 148.724C136.819 148.957 136.673 148.899 137.489 148.579C137.809 148.462 138.101 148.404 138.421 148.346C138.975 147.85 139.412 147.326 139.208 147.093C139.208 147.093 136.79 145.986 136.528 146.132C136.266 146.277 133.819 147.705 134.197 148.287C134.256 148.433 134.372 148.55 134.518 148.637Z" fill="url(#paint40_linear_6_236)"/>
<path d="M199.302 172.32C199.302 172.32 196.885 171.213 196.623 171.358C196.448 171.446 195.341 172.116 194.7 172.698C194.933 173.048 195.224 173.397 195.37 173.805C195.428 173.98 195.457 174.155 195.457 174.329C196.011 174.563 196.623 174.708 196.885 174.65C197.467 174.504 199.739 172.786 199.302 172.32Z" fill="url(#paint41_linear_6_236)"/>
<path d="M126.303 138.995C126.478 139.082 126.624 139.141 126.798 139.257C127.789 139.84 128.837 140.568 129.391 139.607C129.274 137.276 127.643 132.586 122.283 131.013C118.788 129.994 117.04 130.722 115.467 131.363C114.127 131.916 112.962 132.383 110.34 131.887C103.261 130.547 100.523 132.586 100.145 132.936C101.484 133.256 102.824 133.577 104.135 134.043C104.543 134.189 104.951 134.305 105.388 134.422C106.524 134.363 107.951 134.451 109.816 134.8C113.311 135.47 115.146 134.713 116.603 134.101C117.972 133.548 118.962 133.14 121.468 133.868C124.963 134.888 126.012 137.626 126.303 138.995Z" fill="url(#paint42_linear_6_236)"/>
<path d="M85.7544 145.637C86.4535 145.986 87.1526 145.986 87.8517 146.248C88.4052 146.452 88.813 146.831 89.3665 147.035C89.8326 147.239 90.3278 147.297 90.7938 147.472C91.0851 147.588 91.3473 147.705 91.5803 147.85C92.1338 147.967 92.7164 148.113 93.3281 148.287C94.3185 148.608 95.1051 148.957 95.7459 149.307C96.3285 149.482 96.9111 149.715 97.4354 149.89C98.2511 150.181 98.9211 149.948 99.7658 149.977C99.7658 149.977 99.7658 149.977 99.795 149.977C100.407 149.977 100.785 149.278 100.407 148.812C99.4745 147.647 97.7267 146.19 94.4351 145.17C90.4152 143.918 87.1526 144.267 85.5505 144.588C85.1427 144.675 85.0553 145.2 85.4048 145.404C85.5213 145.52 85.6379 145.578 85.7544 145.637Z" fill="url(#paint43_linear_6_236)"/>
<path d="M84.1814 147.035C84.8805 147.414 85.6087 147.472 86.3079 147.763C86.8613 147.996 87.2983 148.404 87.8226 148.637C88.2887 148.841 88.813 148.928 89.2791 149.132C89.5704 149.249 89.8326 149.394 90.0656 149.569C90.6191 149.715 91.2308 149.89 91.8425 150.093C92.8621 150.472 93.6486 150.851 94.2894 151.259C94.9012 151.463 95.4838 151.754 96.0081 151.958C96.8237 152.278 97.4937 152.103 98.3676 152.162C98.8919 152.191 99.3289 152.22 99.7658 152.22C99.2124 151.055 97.5811 148.666 92.9495 147.006C87.6187 145.054 83.657 146.015 82.9579 146.219C83.3949 146.481 83.7444 146.802 84.1814 147.035Z" fill="url(#paint44_linear_6_236)"/>
<path fill-rule="evenodd" clip-rule="evenodd" d="M151.733 161.512C154.326 162.59 156.074 164.251 155.753 165.357C155.753 165.357 155.346 166.494 153.947 166.756H153.918H153.889C152.811 166.989 151.151 166.756 149.403 166.027C146.869 165.008 145.179 163.406 145.354 162.299C145.354 162.299 145.529 160.813 147.801 160.697C148.85 160.638 150.248 160.901 151.733 161.512ZM146.432 161.891C146.082 162.765 147.859 164.163 150.248 165.124C152.636 166.115 154.879 166.348 155.229 165.503C155.608 164.6 153.889 163.027 151.5 162.066C149.112 161.075 146.781 161.017 146.432 161.891Z" fill="#4A9500"/>
<path d="M181.329 173.659C179.057 173.776 178.912 175.262 178.912 175.262C178.824 175.728 179.115 176.31 179.64 176.893C180.281 176.922 180.951 176.951 181.592 176.98C180.426 176.223 179.756 175.436 179.989 174.883C180.339 174.009 182.669 174.067 185.058 175.058C186.456 175.64 187.651 176.427 188.291 177.126C188.524 177.126 188.757 177.126 188.99 177.126C188.379 176.223 187.039 175.232 185.262 174.504C183.776 173.863 182.378 173.601 181.329 173.659Z" fill="#4A9500"/>
<path fill-rule="evenodd" clip-rule="evenodd" d="M108.126 153.909C110.806 154.783 112.67 156.298 112.437 157.434C112.437 157.434 112.146 158.599 110.748 158.978H110.719H110.69C109.641 159.298 107.98 159.182 106.174 158.599C103.553 157.784 101.747 156.327 101.834 155.191C101.834 155.191 101.892 153.706 104.135 153.414C105.184 153.269 106.611 153.414 108.126 153.909ZM102.883 154.696C102.591 155.599 104.485 156.852 106.932 157.638C109.379 158.425 111.651 158.483 111.942 157.58C112.233 156.677 110.398 155.249 107.951 154.463C105.504 153.676 103.174 153.793 102.883 154.696Z" fill="#4A9500"/>
<path fill-rule="evenodd" clip-rule="evenodd" d="M128.43 141.384C130.469 142.024 131.867 143.161 131.692 144.034C131.692 144.034 131.459 144.937 130.44 145.229H130.41H130.381C129.566 145.462 128.313 145.374 126.944 144.937C124.963 144.297 123.565 143.19 123.652 142.345C123.652 142.345 123.681 141.238 125.4 141.005C126.187 140.888 127.264 141.005 128.43 141.384ZM124.439 141.995C124.206 142.665 125.633 143.627 127.497 144.209C129.362 144.792 131.08 144.85 131.313 144.18C131.517 143.51 130.148 142.403 128.284 141.821C126.42 141.238 124.672 141.296 124.439 141.995Z" fill="#4A9500"/>
<path d="M62.101 68.4134C62.101 68.4134 44.5357 63.0535 33.9615 60.7231C33.9615 60.7231 32.4759 73.9189 32.1264 79.7158C31.5438 89.2704 32.709 96.2906 32.709 96.2906L64.4896 101.68C64.4896 101.68 62.5962 94.5429 61.9844 84.9009C61.3727 75.2589 62.101 68.4134 62.101 68.4134Z" fill="url(#paint45_linear_6_236)"/>
<g opacity="0.5">
<path d="M44.6231 63.4031C40.8944 62.3835 37.1076 61.4222 33.9615 60.7231C33.9615 60.7231 32.4759 73.9189 32.1264 79.7158C31.5438 89.2704 32.709 96.2906 32.709 96.2906L46.1378 98.5628C44.9726 96.5528 42.4092 95.7663 40.9236 93.9894C39.6419 92.4455 39.2923 90.2608 39.7875 88.3382C40.2827 86.4156 41.5644 84.7261 43.1374 83.5026C45.3513 81.8131 48.0604 80.9684 50.7112 80.1236C51.2938 79.9488 51.8764 79.7449 52.2842 79.3371C52.7211 78.9293 52.9251 78.2302 52.6046 77.7058C52.3716 77.3563 51.9638 77.1815 51.556 77.0358C49.546 76.2785 47.5069 75.5211 45.497 74.7928C43.3122 73.9772 40.8362 72.8411 40.3701 70.5399C39.9623 68.559 41.3314 66.6947 42.7296 65.2674C43.3122 64.6265 43.9531 63.9857 44.6231 63.4031Z" fill="#2D3B1C"/>
</g>
<path d="M107.689 189.069C107.689 189.04 107.864 185.661 111.622 178.233C114.535 172.523 115.409 168.008 114.156 165.154C113.573 163.814 112.525 162.911 111.156 162.532C108.563 161.833 106.582 163.231 105.563 164.425C107.689 165.008 110.282 165.707 110.282 165.707C110.69 165.824 110.952 166.057 111.126 166.494C111.418 167.163 112.146 169.931 108.68 176.747C104.572 184.816 104.397 188.603 104.368 189.011C104.368 189.71 104.776 190.322 105.388 190.584C105.563 190.671 105.767 190.7 105.97 190.7C106.932 190.7 107.689 189.972 107.689 189.069Z" fill="url(#paint46_linear_6_236)"/>
<path opacity="0.2" d="M251.503 100.777C243.871 101.563 231.724 101.33 226.801 92.9116C221.441 83.7357 224.121 73.249 226.015 68.1512C224.675 68.093 223.364 68.5591 222.257 69.3164C218.79 71.7051 214.188 85.2796 223.393 96.9024C230.996 106.515 244.512 104.156 251.503 100.777Z" fill="#FB8000"/>
<path opacity="0.2" d="M112.903 102.612C116.661 100.398 118.846 97.3102 119.982 94.339C117.797 99.9901 110.893 102.961 104.048 101.709C97.1733 100.456 92.5708 96.0867 90.6773 93.2903C88.7839 90.4938 86.4535 88.6878 86.4535 88.6878C85.7835 92.3581 92.5708 96.0867 92.5708 96.0867C94.4351 99.6697 104.281 107.739 112.903 102.612Z" fill="#FB8000"/>
<defs>
<linearGradient id="paint0_linear_6_236" x1="-34.7515" y1="195.431" x2="71.6986" y2="329.977" gradientUnits="userSpaceOnUse">
<stop stop-color="#2A1617"/>
<stop offset="1" stop-color="#614444"/>
</linearGradient>
<radialGradient id="paint1_radial_6_236" cx="0" cy="0" r="1" gradientUnits="userSpaceOnUse" gradientTransform="translate(153.381 178.018) rotate(22.1569) scale(107.497 79.2735)">
<stop stop-color="#614444"/>
<stop offset="1" stop-color="#2A1617"/>
</radialGradient>
<linearGradient id="paint2_linear_6_236" x1="169.78" y1="218.471" x2="213.981" y2="241.907" gradientUnits="userSpaceOnUse">
<stop offset="0.2446" stop-color="#2A1617" stop-opacity="0.2"/>
<stop offset="0.5693" stop-color="#271314" stop-opacity="0.5444"/>
<stop offset="0.8338" stop-color="#1D0A0A" stop-opacity="0.825"/>
<stop offset="0.9987" stop-color="#120000"/>
</linearGradient>
<linearGradient id="paint3_linear_6_236" x1="9.31838" y1="229.429" x2="115.17" y2="252.123" gradientUnits="userSpaceOnUse">
<stop offset="0.00128845" stop-color="#120000"/>
<stop offset="0.1618" stop-color="#1C090A" stop-opacity="0.8297"/>
<stop offset="0.4362" stop-color="#271314" stop-opacity="0.5387"/>
<stop offset="0.7554" stop-color="#2A1617" stop-opacity="0.2"/>
</linearGradient>
<linearGradient id="paint4_linear_6_236" x1="-64.6346" y1="140.001" x2="-32.5553" y2="254.986" gradientUnits="userSpaceOnUse">
<stop stop-color="#7D5A56"/>
<stop offset="1" stop-color="#614444"/>
</linearGradient>
<linearGradient id="paint5_linear_6_236" x1="-57.7317" y1="139.766" x2="-28.4135" y2="248.666" gradientUnits="userSpaceOnUse">
<stop stop-color="#614444"/>
<stop offset="0.0511097" stop-color="#5A3E3E"/>
<stop offset="0.2999" stop-color="#3C2323"/>
<stop offset="0.5444" stop-color="#261010"/>
<stop offset="0.7809" stop-color="#190404"/>
<stop offset="1" stop-color="#150000"/>
</linearGradient>
<linearGradient id="paint6_linear_6_236" x1="-80.7381" y1="138.04" x2="-59.8392" y2="233.737" gradientUnits="userSpaceOnUse">
<stop stop-color="#FFCB1E"/>
<stop offset="0.094509" stop-color="#FECC2A"/>
<stop offset="0.7133" stop-color="#F5D376"/>
<stop offset="0.9987" stop-color="#F2D694"/>
</linearGradient>
<linearGradient id="paint7_linear_6_236" x1="82.4954" y1="132.046" x2="103.988" y2="154.436" gradientUnits="userSpaceOnUse">
<stop stop-color="#FFDF86"/>
<stop offset="1" stop-color="#FFC83E"/>
</linearGradient>
<linearGradient id="paint8_linear_6_236" x1="28.8921" y1="155.796" x2="40.7167" y2="209.369" gradientUnits="userSpaceOnUse">
<stop stop-color="#E4B135"/>
<stop offset="0.1583" stop-color="#E5B43D"/>
<stop offset="0.4031" stop-color="#E8BD53"/>
<stop offset="0.702" stop-color="#EECA76"/>
<stop offset="0.9189" stop-color="#F2D694"/>
</linearGradient>
<linearGradient id="paint9_linear_6_236" x1="-17.1087" y1="103.886" x2="-17.0639" y2="103.993" gradientUnits="userSpaceOnUse">
<stop stop-color="#FFDF86"/>
<stop offset="1" stop-color="#FFC83E"/>
</linearGradient>
<linearGradient id="paint10_linear_6_236" x1="107.017" y1="55.7514" x2="150.433" y2="83.6181" gradientUnits="userSpaceOnUse">
<stop stop-color="#3F522A"/>
<stop offset="0.2676" stop-color="#3E4D2E"/>
<stop offset="1" stop-color="#3D4337"/>
</linearGradient>
<linearGradient id="paint11_linear_6_236" x1="-75.3454" y1="69.4292" x2="37.0829" y2="230.516" gradientUnits="userSpaceOnUse">
<stop stop-color="#C50000"/>
<stop offset="0.1629" stop-color="#CC1106"/>
<stop offset="0.4988" stop-color="#D82E11"/>
<stop offset="0.7895" stop-color="#DF4018"/>
<stop offset="1" stop-color="#E2461A"/>
</linearGradient>
<linearGradient id="paint12_linear_6_236" x1="-99.1201" y1="75.2725" x2="-22.7437" y2="232.437" gradientUnits="userSpaceOnUse">
<stop stop-color="#C50000"/>
<stop offset="0.1629" stop-color="#CC1106"/>
<stop offset="0.4988" stop-color="#D82E11"/>
<stop offset="0.7895" stop-color="#DF4018"/>
<stop offset="1" stop-color="#E2461A"/>
</linearGradient>
<linearGradient id="paint13_linear_6_236" x1="63.3415" y1="224.681" x2="83.9672" y2="225.881" gradientUnits="userSpaceOnUse">
<stop stop-color="#FFDF86"/>
<stop offset="1" stop-color="#FFC83E"/>
</linearGradient>
<linearGradient id="paint14_linear_6_236" x1="53.3196" y1="207.039" x2="73.635" y2="209.114" gradientUnits="userSpaceOnUse">
<stop stop-color="#FFDF86"/>
<stop offset="1" stop-color="#FFC83E"/>
</linearGradient>
<linearGradient id="paint15_linear_6_236" x1="80.1769" y1="197.428" x2="93.4686" y2="199.261" gradientUnits="userSpaceOnUse">
<stop stop-color="#FFDF86"/>
<stop offset="1" stop-color="#FFC83E"/>
</linearGradient>
<linearGradient id="paint16_linear_6_236" x1="128.669" y1="143.097" x2="160.694" y2="156.928" gradientUnits="userSpaceOnUse">
<stop stop-color="white"/>
<stop offset="1" stop-color="#D8D8D8"/>
</linearGradient>
<linearGradient id="paint17_linear_6_236" x1="132.607" y1="145.954" x2="147.803" y2="158.808" gradientUnits="userSpaceOnUse">
<stop stop-color="#FF8F00"/>
<stop offset="0.4035" stop-color="#FF9800"/>
<stop offset="1" stop-color="#FFAE00"/>
</linearGradient>
<linearGradient id="paint18_linear_6_236" x1="162.361" y1="155.984" x2="195.201" y2="168.62" gradientUnits="userSpaceOnUse">
<stop stop-color="white"/>
<stop offset="1" stop-color="#D8D8D8"/>
</linearGradient>
<linearGradient id="paint19_linear_6_236" x1="166.997" y1="159.938" x2="186.377" y2="169.274" gradientUnits="userSpaceOnUse">
<stop stop-color="#FF8F00"/>
<stop offset="0.4035" stop-color="#FF9800"/>
<stop offset="1" stop-color="#FFAE00"/>
</linearGradient>
<linearGradient id="paint20_linear_6_236" x1="178.561" y1="116.688" x2="184.878" y2="119.058" gradientUnits="userSpaceOnUse">
<stop stop-color="#FFDF86"/>
<stop offset="1" stop-color="#FFC83E"/>
</linearGradient>
<linearGradient id="paint21_linear_6_236" x1="176.949" y1="142.994" x2="191.733" y2="145.081" gradientUnits="userSpaceOnUse">
<stop stop-color="#FFDF86"/>
<stop offset="1" stop-color="#FFC83E"/>
</linearGradient>
<linearGradient id="paint22_linear_6_236" x1="167.429" y1="112.54" x2="173.853" y2="114.525" gradientUnits="userSpaceOnUse">
<stop stop-color="#FFDF86"/>
<stop offset="1" stop-color="#FFC83E"/>
</linearGradient>
<linearGradient id="paint23_linear_6_236" x1="167.031" y1="140.582" x2="181.745" y2="142.166" gradientUnits="userSpaceOnUse">
<stop stop-color="#FFDF86"/>
<stop offset="1" stop-color="#FFC83E"/>
</linearGradient>
<linearGradient id="paint24_linear_6_236" x1="159.759" y1="116.313" x2="166.915" y2="117.333" gradientUnits="userSpaceOnUse">
<stop stop-color="#FFDF86"/>
<stop offset="1" stop-color="#FFC83E"/>
</linearGradient>
<linearGradient id="paint25_linear_6_236" x1="161.645" y1="139.184" x2="176.889" y2="140.886" gradientUnits="userSpaceOnUse">
<stop stop-color="#FFDF86"/>
<stop offset="1" stop-color="#FFC83E"/>
</linearGradient>
<linearGradient id="paint26_linear_6_236" x1="155.645" y1="136.652" x2="172.327" y2="139.153" gradientUnits="userSpaceOnUse">
<stop stop-color="#FFDF86"/>
<stop offset="1" stop-color="#FFC83E"/>
</linearGradient>
<linearGradient id="paint27_linear_6_236" x1="154.937" y1="108.021" x2="162.683" y2="111.355" gradientUnits="userSpaceOnUse">
<stop stop-color="#FFDF86"/>
<stop offset="1" stop-color="#FFC83E"/>
</linearGradient>
<linearGradient id="paint28_linear_6_236" x1="91.1397" y1="147.858" x2="107.266" y2="166.372" gradientUnits="userSpaceOnUse">
<stop stop-color="#CD7100"/>
<stop offset="0.4905" stop-color="#C16A00"/>
<stop offset="0.9987" stop-color="#B96600"/>
</linearGradient>
<linearGradient id="paint29_linear_6_236" x1="44.6833" y1="133.679" x2="55.4622" y2="154.835" gradientUnits="userSpaceOnUse">
<stop stop-color="#CD7100"/>
<stop offset="0.4905" stop-color="#C16A00"/>
<stop offset="0.9987" stop-color="#B96600"/>
</linearGradient>
<linearGradient id="paint30_linear_6_236" x1="246.145" y1="97.8331" x2="254.789" y2="107.66" gradientUnits="userSpaceOnUse">
<stop stop-color="#FF8F00"/>
<stop offset="0.4035" stop-color="#FF9800"/>
<stop offset="1" stop-color="#FFAE00"/>
</linearGradient>
<linearGradient id="paint31_linear_6_236" x1="216.182" y1="85.2073" x2="231.996" y2="89.2708" gradientUnits="userSpaceOnUse">
<stop stop-color="#FF8F00"/>
<stop offset="0.4035" stop-color="#FF9800"/>
<stop offset="1" stop-color="#FFAE00"/>
</linearGradient>
<linearGradient id="paint32_linear_6_236" x1="219.359" y1="98.1937" x2="233.125" y2="108.721" gradientUnits="userSpaceOnUse">
<stop stop-color="#FF8F00"/>
<stop offset="0.4035" stop-color="#FF9800"/>
<stop offset="1" stop-color="#FFAE00"/>
</linearGradient>
<linearGradient id="paint33_linear_6_236" x1="83.1192" y1="97.839" x2="95.0503" y2="101.939" gradientUnits="userSpaceOnUse">
<stop stop-color="#FF8F00"/>
<stop offset="0.4035" stop-color="#FF9800"/>
<stop offset="1" stop-color="#FFAE00"/>
</linearGradient>
<linearGradient id="paint34_linear_6_236" x1="109.784" y1="93.8635" x2="119.693" y2="96.5899" gradientUnits="userSpaceOnUse">
<stop stop-color="#FF8F00"/>
<stop offset="0.4035" stop-color="#FF9800"/>
<stop offset="1" stop-color="#FFAE00"/>
</linearGradient>
<linearGradient id="paint35_linear_6_236" x1="97.8536" y1="102.37" x2="108.528" y2="109.83" gradientUnits="userSpaceOnUse">
<stop stop-color="#FF8F00"/>
<stop offset="0.4035" stop-color="#FF9800"/>
<stop offset="1" stop-color="#FFAE00"/>
</linearGradient>
<linearGradient id="paint36_linear_6_236" x1="-17.6462" y1="105.194" x2="-17.607" y2="105.299" gradientUnits="userSpaceOnUse">
<stop stop-color="#FFDF86"/>
<stop offset="1" stop-color="#FFC83E"/>
</linearGradient>
<linearGradient id="paint37_linear_6_236" x1="157.923" y1="167.79" x2="158.864" y2="173.031" gradientUnits="userSpaceOnUse">
<stop stop-color="#C50000"/>
<stop offset="0.1629" stop-color="#CC1106"/>
<stop offset="0.4988" stop-color="#D82E11"/>
<stop offset="0.7895" stop-color="#DF4018"/>
<stop offset="1" stop-color="#E2461A"/>
</linearGradient>
<linearGradient id="paint38_linear_6_236" x1="53.2366" y1="142.142" x2="55.8661" y2="147.032" gradientUnits="userSpaceOnUse">
<stop stop-color="#C50000"/>
<stop offset="0.1629" stop-color="#CC1106"/>
<stop offset="0.4988" stop-color="#D82E11"/>
<stop offset="0.7895" stop-color="#DF4018"/>
<stop offset="1" stop-color="#E2461A"/>
</linearGradient>
<linearGradient id="paint39_linear_6_236" x1="93.0948" y1="133.756" x2="95.7388" y2="135.352" gradientUnits="userSpaceOnUse">
<stop stop-color="#C50000"/>
<stop offset="0.1629" stop-color="#CC1106"/>
<stop offset="0.4988" stop-color="#D82E11"/>
<stop offset="0.7895" stop-color="#DF4018"/>
<stop offset="1" stop-color="#E2461A"/>
</linearGradient>
<linearGradient id="paint40_linear_6_236" x1="133.082" y1="148.08" x2="135.371" y2="151.115" gradientUnits="userSpaceOnUse">
<stop stop-color="#C50000"/>
<stop offset="0.1629" stop-color="#CC1106"/>
<stop offset="0.4988" stop-color="#D82E11"/>
<stop offset="0.7895" stop-color="#DF4018"/>
<stop offset="1" stop-color="#E2461A"/>
</linearGradient>
<linearGradient id="paint41_linear_6_236" x1="193.787" y1="173.694" x2="197.063" y2="176.178" gradientUnits="userSpaceOnUse">
<stop stop-color="#C50000"/>
<stop offset="0.1629" stop-color="#CC1106"/>
<stop offset="0.4988" stop-color="#D82E11"/>
<stop offset="0.7895" stop-color="#DF4018"/>
<stop offset="1" stop-color="#E2461A"/>
</linearGradient>
<linearGradient id="paint42_linear_6_236" x1="84.9999" y1="132.666" x2="89.5185" y2="149.857" gradientUnits="userSpaceOnUse">
<stop stop-color="#FFDF86"/>
<stop offset="1" stop-color="#FFC83E"/>
</linearGradient>
<linearGradient id="paint43_linear_6_236" x1="77.7866" y1="146.363" x2="81.1819" y2="156.235" gradientUnits="userSpaceOnUse">
<stop stop-color="#FFDF86"/>
<stop offset="1" stop-color="#FFC83E"/>
</linearGradient>
<linearGradient id="paint44_linear_6_236" x1="76.9175" y1="146.695" x2="78.6638" y2="149.247" gradientUnits="userSpaceOnUse">
<stop stop-color="#FFDF86"/>
<stop offset="1" stop-color="#FFC83E"/>
</linearGradient>
<linearGradient id="paint45_linear_6_236" x1="22.2785" y1="100.433" x2="63.9106" y2="110.533" gradientUnits="userSpaceOnUse">
<stop stop-color="#3F522A"/>
<stop offset="0.2676" stop-color="#3E4D2E"/>
<stop offset="1" stop-color="#3D4337"/>
</linearGradient>
<linearGradient id="paint46_linear_6_236" x1="-24.5989" y1="122.619" x2="-24.4429" y2="122.627" gradientUnits="userSpaceOnUse">
<stop stop-color="#FFDF86"/>
<stop offset="1" stop-color="#FFC83E"/>
</linearGradient>
</defs>
</svg>
