<svg width="582" height="537" viewBox="0 0 582 537" fill="none" xmlns="http://www.w3.org/2000/svg">
<path d="M250.845 520.552C127.793 495.03 148.439 445.632 148.439 445.632L374.467 492.497C374.467 492.497 373.77 546.011 250.718 520.489" fill="#150001"/>
<path d="M253.125 509.913C23.804 462.351 82.1318 274.449 82.1318 274.449L503.282 361.782C503.282 361.782 482.066 557.347 252.745 509.786" fill="url(#paint0_linear_6_236)"/>
<path d="M253.125 509.913C23.804 462.351 82.1318 274.449 82.1318 274.449L503.282 361.782C503.282 361.782 482.066 557.347 252.745 509.786" fill="url(#paint1_radial_6_236)"/>
<path d="M503.345 361.782L482.509 357.475C476.113 389.774 446.601 494.333 328.299 517.132C487.006 512.256 503.345 361.782 503.345 361.782Z" fill="url(#paint2_linear_6_236)"/>
<path d="M103.031 278.755L82.1317 274.449C82.1317 274.449 25.1973 457.918 245.082 508.139C148.566 455.321 131.656 371.788 132.67 315.994C133.05 298.071 120.637 282.428 103.031 278.755Z" fill="url(#paint3_linear_6_236)"/>
<path d="M503.789 361.908C497.329 392.941 397.773 398.45 281.307 374.321C164.842 350.192 75.7353 305.481 82.1317 274.449C88.5282 243.416 188.148 237.907 304.613 262.036C421.078 286.165 510.248 330.876 503.789 361.908Z" fill="url(#paint4_linear_6_236)"/>
<path opacity="0.5" d="M424.245 429.672C382.573 432.016 328.805 426.886 272.884 415.296C216.963 403.707 165.602 386.987 128.237 368.305C92.0747 350.192 73.0121 331.826 75.9253 318.02C75.9887 317.64 75.9253 317.197 75.7987 316.88C75.6087 321.883 75.5453 327.266 75.7353 332.84C82.8284 344.999 100.244 358.299 126.653 371.598C135.33 375.968 144.703 380.148 154.772 384.264C188.338 397.944 228.869 409.913 272.188 418.906C328.425 430.559 382.51 435.689 424.498 433.346C453.377 431.762 474.276 426.633 485.803 418.653C487.196 415.803 488.463 412.953 489.603 410.23C481.749 420.743 458.634 427.773 424.245 429.672Z" fill="#150001"/>
<g opacity="0.5">
<path d="M404.612 470.204C365.854 472.357 315.823 467.608 263.765 456.841C211.707 446.075 163.955 430.496 129.187 413.08C104.044 400.477 87.8315 387.747 82.3217 376.791C83.335 380.464 84.5383 384.138 85.8683 387.874C94.2913 397.057 108.351 406.683 127.54 416.31C135.583 420.363 144.386 424.289 153.696 428.089C184.918 440.819 222.663 451.965 262.941 460.325C315.253 471.154 365.601 475.967 404.739 473.751C426.778 472.547 443.814 469.128 455.214 463.808C458.38 460.388 461.357 456.968 464.08 453.422C455.91 462.541 435.011 468.494 404.612 470.204Z" fill="#150001"/>
</g>
<ellipse cx="292.99" cy="318.137" rx="53.2634" ry="205.834" transform="rotate(-78.2822 292.99 318.137)" fill="#B2B2B2"/>
<path d="M494.542 359.945C488.589 388.761 393.466 393.384 282.194 370.268C170.858 347.152 85.4883 305.101 91.4414 276.348C97.3945 247.596 192.517 242.91 303.79 266.026C415.062 289.141 500.495 331.193 494.542 359.945Z" fill="url(#paint5_linear_6_236)"/>
<path d="M282.194 370.268C355.278 385.404 421.332 388.634 459.774 380.908C456.164 377.805 452.174 374.638 447.741 371.408C428.868 357.665 404.169 338.793 371.744 329.673C346.728 322.643 324.879 311.244 298.787 303.897C285.297 300.098 272.188 296.044 259.331 292.751C242.612 288.508 225.576 286.988 210.313 284.328C193.087 281.288 177.761 277.235 163.195 276.158C148.566 275.082 133.936 275.209 122.917 276.222C108.477 277.552 98.5978 280.592 92.3913 285.531C103.094 313.524 182.195 349.559 282.194 370.268Z" fill="#CBCBCB"/>
<path d="M282.194 370.268C355.278 385.404 421.332 388.634 459.774 380.908C456.164 377.805 452.174 374.638 447.741 371.408C428.868 357.665 404.169 338.793 371.744 329.673C346.728 322.643 324.879 311.244 298.787 303.897C285.297 300.098 272.188 296.044 259.331 292.751C242.612 288.508 225.576 286.988 210.313 284.328C193.087 281.288 177.761 277.235 163.195 276.158C148.566 275.082 133.936 275.209 122.917 276.222C108.477 277.552 98.5978 280.592 92.3913 285.531C103.094 313.524 182.195 349.559 282.194 370.268Z" fill="url(#paint6_linear_6_236)"/>
<path d="M261.548 297.058C262.815 297.374 267.311 299.338 268.008 297.691C268.198 297.248 268.451 296.868 268.831 296.614C262.561 293.321 247.552 284.265 243.055 277.045C241.092 273.879 239.636 270.965 238.306 268.432C234.696 261.402 231.846 255.893 224.056 252.726H223.993C220.066 251.143 216.077 251.649 213.1 254.119C209.173 257.413 207.654 263.302 208.983 270.015C210.06 275.272 208.667 275.588 204.17 276.728C200.94 277.552 196.317 278.755 194.481 283.442C194.354 283.695 194.417 284.011 194.671 284.201C195.241 284.771 195.811 285.278 196.444 285.721C197.837 286.671 198.977 286.545 200.18 286.101C200.37 286.038 200.497 285.848 200.56 285.721C201.13 284.391 202.524 283.885 205.817 283.062C210.25 281.922 217.66 280.085 215.38 268.812C214.557 264.632 215.253 260.832 217.28 259.186C218.42 258.236 219.876 258.109 221.586 258.806H221.65C227.223 261.086 229.249 265.012 232.606 271.472C233.999 274.132 235.582 277.172 237.609 280.528C240.966 285.975 248.312 291.611 254.835 295.854C256.988 296.108 259.268 296.424 261.548 297.058Z" fill="url(#paint7_linear_6_236)"/>
<path opacity="0.3" d="M396.759 357.602C396.759 357.602 373.264 330.053 340.965 330.75C308.666 331.446 254.138 291.991 246.539 305.481C238.939 318.907 171.872 291.168 165.982 300.794C160.092 310.42 127.287 292.055 120.194 302.567C113.101 313.08 170.478 332.46 188.908 337.653C200.434 340.883 210.883 349.116 224.12 355.955C237.419 359.819 251.352 363.428 265.791 366.722C282.194 366.785 287.894 361.275 305.056 367.608C327.539 375.841 346.665 381.858 361.737 379.324C369.02 378.121 386.943 381.921 403.346 384.961C415.252 385.151 426.335 384.834 436.341 384.074C435.011 373.688 415.569 372.168 396.759 357.602Z" fill="#D28D3C"/>
<path d="M331.022 356.209C331.022 355.195 330.389 354.119 329.565 353.169C323.676 346.266 314.556 347.596 300.687 339.679C295.303 336.766 289.287 332.776 283.587 332.46C279.851 332.27 276.367 333.283 272.568 332.776C270.351 332.46 268.134 331.636 265.918 330.876C261.548 329.483 257.178 328.596 252.745 327.773C247.172 326.696 241.662 325.557 236.089 324.48C228.236 322.96 220.32 321.377 212.593 321.187C208.92 321.123 204.677 321.757 203.854 324.797C203.727 325.177 203.727 325.683 203.98 326.127C204.234 326.57 204.614 326.886 205.057 327.14C214.177 333.346 225.766 332.586 235.709 337.209C236.659 337.653 237.609 338.159 238.306 338.856C238.812 339.363 239.192 339.933 239.699 340.439C241.789 342.909 244.955 344.492 248.059 345.316C251.162 346.139 254.328 346.392 257.432 346.772C279.977 349.369 303.093 359.819 325.069 359.312C327.855 359.249 331.022 358.552 331.022 356.209Z" fill="url(#paint8_linear_6_236)"/>
<path d="M322.599 371.598C321.142 367.038 317.406 360.705 308.033 356.145C291.377 348.102 261.611 350.572 260.408 350.699C258.445 350.889 256.988 352.599 257.115 354.562C257.178 355.069 257.305 355.512 257.495 355.892C259.901 356.462 262.308 356.842 264.651 357.602C272.884 357.222 293.213 356.969 304.93 362.605C313.796 366.912 315.949 372.991 316.393 376.538C318.799 376.918 321.269 377.298 323.676 377.678C323.612 376.158 323.359 374.005 322.599 371.598Z" fill="url(#paint9_linear_6_236)"/>
<path d="M316.329 50.7007C316.329 50.7007 356.038 74.4497 378.267 90.2824C378.267 90.2824 359.141 116.881 348.881 127.331C332.035 144.557 313.923 152.79 313.923 152.79L250.085 102.505C250.085 102.505 269.654 95.4756 288.654 80.3395C307.78 65.1401 316.329 50.7007 316.329 50.7007Z" fill="url(#paint10_linear_6_236)"/>
<path opacity="0.5" d="M308.223 135.817C298.597 126.888 288.337 124.798 274.214 117.451C271.871 116.248 270.034 115.045 268.641 113.905C265.221 111.055 266.425 105.608 270.731 104.532C274.468 103.582 278.267 103.202 282.194 103.582C294.227 104.722 304.423 112.892 315.949 116.438C316.709 116.691 317.533 116.438 317.976 115.805C318.546 114.981 317.976 114.158 317.469 113.462C314.176 108.965 310.883 104.532 307.59 100.035C305.626 97.3755 303.6 94.5889 302.46 91.4857C301.32 88.3825 301.13 84.7093 302.713 81.7961C304.36 78.8195 307.653 76.9829 310.946 76.1596C318.419 74.3231 326.336 76.6663 333.872 75.2097C338.368 74.3231 342.485 72.1065 346.855 70.7132C347.235 70.5865 347.615 70.5232 347.931 70.3965C331.149 59.757 316.139 50.764 316.139 50.764C316.139 50.764 307.59 65.2034 288.527 80.3395C274.974 91.1691 261.105 97.8188 254.265 100.795C252.872 101.365 251.795 101.809 251.098 102.125C250.908 102.189 250.782 102.252 250.655 102.315C250.655 102.315 250.655 102.315 250.592 102.315C250.465 102.379 250.338 102.379 250.275 102.442C250.212 102.505 250.148 102.505 250.085 102.505H250.022L313.859 152.79C313.859 152.79 318.419 150.7 325.132 146.457C319.116 143.48 312.466 139.744 308.223 135.817Z" fill="#2D3B1C"/>
<path d="M476.683 231.004L36.9135 0.795945C32.4804 -1.48397 26.5906 1.30259 23.6774 7.00237C20.7642 12.7021 21.9674 19.0986 26.4006 21.3785L470.35 243.29V243.226C472.946 244.556 476.493 242.91 478.266 239.553C480.04 236.197 479.28 232.334 476.683 231.004Z" fill="url(#paint11_linear_6_236)"/>
<path d="M84.9183 25.9383L64.8424 15.4254C60.6626 14.0321 55.4695 16.7553 52.8729 21.9485C50.213 27.0782 51.0363 32.9047 54.6462 35.4379L74.912 45.5709C70.8589 43.3543 69.7822 37.2745 72.5055 31.9547C75.2287 26.6349 80.7385 23.975 84.9183 25.9383Z" fill="#FF7C66"/>
<path d="M129.44 49.3074L110.314 39.3011C106.324 37.9712 101.384 40.5677 98.9144 45.5075C96.3812 50.384 97.2045 55.8938 100.561 58.3637L119.814 67.99C115.95 65.8367 114.874 60.137 117.534 55.0072C120.194 49.9407 125.45 47.4075 129.44 49.3074Z" fill="#FF7C66"/>
<path d="M469.59 247.406L13.8611 50.764C9.30127 48.8641 3.60149 52.0306 1.13159 57.9204C-1.33831 63.8101 0.371621 70.0799 4.93144 72.0432L464.27 260.136V260.072C466.993 261.212 470.413 259.312 471.87 255.829C473.326 252.346 472.313 248.546 469.59 247.406Z" fill="url(#paint12_linear_6_236)"/>
<path d="M63.6391 72.2331L42.8666 63.2402C38.6235 62.1635 33.6203 65.2668 31.4037 70.5865C29.1872 75.9063 30.3904 81.6061 34.127 83.9494L55.0895 92.499C50.8463 90.5991 49.3264 84.646 51.6696 79.0729C54.0128 73.6264 59.3326 70.5232 63.6391 72.2331Z" fill="#FF7C66"/>
<path d="M109.807 92.1824L90.0481 83.6327C85.9949 82.6194 81.2451 85.596 79.1552 90.6624C77.002 95.7289 78.2052 101.175 81.7518 103.392L101.701 111.562C97.7111 109.725 96.1912 104.089 98.4078 98.7688C100.624 93.5123 105.691 90.5991 109.807 92.1824Z" fill="#FF7C66"/>
<path d="M125.007 536.765C124.31 536.448 123.677 535.942 123.297 535.245C122.284 533.535 122.853 531.318 124.563 530.305C124.69 530.242 137.103 522.705 148.756 507.823C164.272 488 171.238 465.201 169.465 440.059C166.868 404.467 178.015 381.288 185.361 366.025C189.224 358.045 192.264 351.712 191.124 347.912C190.491 345.759 189.161 344.682 187.704 344.176L178.205 340.629C177.698 338.729 179.028 337.526 180.928 337.019C185.614 335.879 195.177 336.196 198.027 345.822C199.927 352.282 196.571 359.312 191.884 369.128C184.411 384.644 174.215 405.86 176.685 439.552C179.091 473.371 165.855 497.88 154.329 512.509C141.853 528.342 128.87 536.132 128.3 536.448C127.223 537.082 126.02 537.145 125.007 536.765Z" fill="url(#paint13_linear_6_236)"/>
<path d="M102.714 498.07C101.258 497.5 100.308 495.916 100.498 494.27C100.751 492.307 102.588 490.913 104.551 491.167C104.678 491.167 118.737 492.813 128.68 483.377C136.66 475.841 140.143 463.364 139.003 446.138C137.103 416.753 152.112 395.727 164.209 378.881C176.051 362.352 182.384 352.472 175.608 342.213C174.025 339.743 171.808 338.159 169.402 337.209C159.459 333.156 151.796 329.673 151.796 329.673C153.949 329.23 156.609 328.786 159.459 328.66C169.465 328.216 177.128 331.51 181.561 338.286C191.441 353.169 181.498 367.038 169.972 383.124C157.939 399.907 144.323 418.906 146.096 445.758C147.363 465.201 143.119 479.704 133.493 488.76C121.017 500.476 104.298 498.45 103.601 498.386C103.284 498.323 103.031 498.196 102.714 498.07Z" fill="url(#paint14_linear_6_236)"/>
<path d="M156.166 471.724C155.026 471.281 154.139 470.268 153.949 468.938C153.632 466.974 154.962 465.138 156.925 464.821C158.445 464.568 194.797 458.361 189.731 418.97C185.234 384.074 193.214 359.059 203.157 349.686C207.654 345.442 211.77 345.126 214.43 345.632C223.106 347.279 226.336 352.789 227.539 356.905C227.603 357.159 220.32 354.815 214.683 353.105C214.177 352.979 213.67 352.852 213.1 352.725C211.327 352.409 209.427 353.739 208.16 354.942C199.547 363.048 192.961 387.304 196.887 418.02C199.99 442.212 189.224 455.638 179.598 462.604C169.338 470.078 158.445 471.851 158.002 471.914C157.432 472.041 156.799 471.914 156.166 471.724Z" fill="url(#paint15_linear_6_236)"/>
<path d="M368.324 323.023C371.744 275.082 344.258 262.796 344.258 262.796L317.976 319.793C318.482 320.363 318.926 320.997 319.369 321.693C321.396 322.517 323.422 323.403 325.512 324.29C325.766 324.29 326.019 324.29 326.336 324.227C328.552 324.1 330.769 323.973 332.922 324.48C335.392 325.05 337.038 326.317 338.812 328.026C339.952 329.166 340.015 329.103 341.282 329.356C342.358 329.61 343.118 329.61 344.005 330.37C344.701 330.94 344.955 331.51 345.525 332.016C347.805 332.776 350.148 333.473 352.491 333.916C353.884 333.98 355.341 333.79 356.734 333.473C360.851 332.46 364.081 329.736 367.817 327.963C368.007 326.38 368.197 324.733 368.324 323.023Z" fill="#F1F1F1"/>
<path d="M301.637 310.927C301.763 311.054 301.89 311.18 302.017 311.37C302.523 311.687 303.03 312.004 303.537 312.32C305.69 313.65 307.78 314.98 309.806 316.5C310.06 316.69 310.313 316.88 310.566 317.07C312.086 317.134 313.543 317.134 314.936 317.64C317.026 318.4 318.229 319.92 319.369 321.693C321.396 322.517 323.422 323.403 325.512 324.29C325.766 324.29 326.019 324.29 326.336 324.227C328.552 324.1 330.769 323.973 332.922 324.48C335.392 325.05 337.039 326.316 338.812 328.026C339.952 329.166 340.015 329.103 341.282 329.356C342.358 329.61 343.118 329.61 344.005 330.37C344.702 330.94 344.955 331.51 345.525 332.016C347.805 332.776 350.148 333.473 352.491 333.916C352.745 333.916 352.935 333.916 353.188 333.916C360.471 312.447 361.991 270.839 344.322 262.732C326.209 254.373 294.354 284.328 283.524 303.771C284.411 304.341 285.361 304.847 286.374 305.291C289.097 306.557 291.82 306.177 294.67 306.684C297.457 307.254 299.737 308.774 301.637 310.927Z" fill="url(#paint16_linear_6_236)"/>
<path d="M328.489 314.347C320.826 308.774 314.176 301.047 312.593 291.738C311.326 284.201 313.479 276.348 317.216 269.635C317.533 269.065 317.849 268.559 318.166 267.989C304.043 276.665 289.984 292.118 283.461 303.771C284.347 304.341 285.297 304.847 286.247 305.291C288.97 306.557 291.694 306.177 294.543 306.684C297.393 307.191 299.61 308.711 301.573 310.864C301.7 310.99 301.826 311.117 301.953 311.307C302.46 311.624 302.966 311.94 303.473 312.257C305.626 313.587 307.716 314.917 309.743 316.437C309.996 316.627 310.249 316.817 310.503 317.007C312.023 317.07 313.479 317.07 314.873 317.577C316.963 318.337 318.166 319.857 319.306 321.63C321.332 322.453 323.359 323.34 325.449 324.227C325.702 324.227 325.956 324.227 326.272 324.163C328.489 324.037 330.705 323.91 332.859 324.417C335.329 324.987 336.975 326.253 338.748 327.963C339.888 329.103 339.952 329.04 341.218 329.293C342.295 329.546 343.055 329.546 343.942 330.306C344.638 330.876 344.891 331.446 345.461 331.953C347.741 332.713 350.085 333.41 352.428 333.853C352.681 333.853 352.871 333.853 353.124 333.853C353.948 331.446 354.708 328.723 355.341 325.873C345.715 324.1 336.468 320.173 328.489 314.347Z" fill="#E5E5E5"/>
<path d="M301.953 311.37C302.46 311.687 302.966 312.004 303.473 312.32C305.626 313.65 307.716 314.98 309.743 316.5C309.996 316.69 310.249 316.88 310.503 317.07C312.023 317.134 313.479 317.134 314.873 317.64C316.963 318.4 318.166 319.92 319.306 321.693C321.332 322.517 323.359 323.403 325.449 324.29C325.702 324.29 325.956 324.29 326.272 324.227C328.489 324.1 330.705 323.973 332.859 324.48C335.328 325.05 336.975 326.317 338.748 328.026C338.938 328.216 339.065 328.343 339.192 328.47C341.725 317.83 336.468 306.557 326.209 301.807C316.329 297.248 304.93 300.161 298.28 308.204C299.483 308.901 300.56 309.85 301.51 310.927C301.763 311.054 301.89 311.18 301.953 311.37Z" fill="url(#paint17_linear_6_236)"/>
<path d="M301.32 310.61C308.666 303.517 319.939 301.237 329.819 305.797C331.909 306.747 333.809 308.014 335.519 309.407C333.239 306.241 330.135 303.581 326.272 301.807C316.393 297.248 304.993 300.161 298.343 308.204C299.483 308.837 300.433 309.66 301.32 310.61Z" fill="#F49100"/>
<path d="M388.083 354.119C392.77 357.222 398.216 357.982 403.409 359.629C408.476 361.212 415.252 365.265 420.129 367.165C427.095 369.888 436.911 365.455 437.481 364.568C440.394 359.882 442.674 354.119 444.068 347.216C453.441 300.098 427.792 284.391 427.792 284.391L385.487 352.219C386.31 352.915 387.196 353.549 388.083 354.119Z" fill="#F1F1F1"/>
<path d="M361.801 337.526C366.614 339.806 371.49 342.276 375.987 345.126C380.293 347.786 383.903 351.332 388.083 354.119C392.77 357.222 398.216 357.982 403.409 359.629C408.476 361.212 412.719 364.125 417.532 366.152C418.355 366.532 419.242 366.848 420.129 367.102C421.965 365.202 423.612 363.112 425.068 360.832C436.215 342.973 445.651 295.538 427.792 284.391C409.932 273.245 371.49 302.567 360.344 320.427C357.431 325.113 355.658 330.116 354.961 335.246C357.368 335.753 359.711 336.576 361.801 337.526Z" fill="url(#paint18_linear_6_236)"/>
<path d="M419.179 354.625C415.442 349.306 414.429 342.529 411.642 336.639C408.602 330.18 403.409 324.733 397.076 321.44C392.896 319.287 388.083 317.83 385.297 314.03C382.637 310.42 382.637 305.354 384.157 301.111C385.107 298.388 386.626 295.918 388.336 293.574C376.367 301.554 365.474 312.194 360.344 320.427C357.431 325.113 355.658 330.116 354.961 335.246C357.431 335.753 359.774 336.576 361.801 337.526C366.614 339.806 371.49 342.276 375.987 345.126C380.293 347.786 383.903 351.332 388.083 354.119C392.77 357.222 398.216 357.982 403.409 359.629C408.476 361.212 412.719 364.125 417.532 366.152C418.355 366.532 419.242 366.848 420.129 367.102C421.965 365.202 423.612 363.112 425.068 360.832C425.132 360.705 425.195 360.642 425.258 360.515C422.915 358.932 420.825 356.969 419.179 354.625Z" fill="#E5E5E5"/>
<path d="M375.987 345.126C380.293 347.786 383.903 351.332 388.083 354.119C392.77 357.222 398.216 357.982 403.409 359.629C404.106 359.819 404.802 360.072 405.436 360.389C408.222 358.615 410.629 356.145 412.465 353.169C419.305 342.213 415.949 327.773 404.992 320.87C394.036 313.967 379.597 317.387 372.694 328.343C370.16 332.396 369.021 336.893 369.147 341.263C371.554 342.466 373.77 343.796 375.987 345.126Z" fill="url(#paint19_linear_6_236)"/>
<path d="M372.757 333.473C380.23 321.503 395.999 317.83 408.032 325.303C409.996 326.507 411.705 327.963 413.225 329.61C411.389 326.127 408.602 323.15 405.056 320.87C394.099 314.03 379.66 317.387 372.757 328.343C370.224 332.396 369.084 336.893 369.21 341.263C369.337 341.326 369.4 341.389 369.527 341.453C370.16 338.666 371.174 336.006 372.757 333.473Z" fill="#F49100"/>
<path d="M404.169 235.373C398.976 240.693 394.163 246.71 390.046 251.839C388.653 253.613 387.323 255.259 386.12 256.716C384.853 258.236 385.107 260.452 386.626 261.592C388.21 262.732 390.49 262.416 391.82 260.896C393.023 259.439 394.416 257.729 395.809 255.956C400.053 250.699 405.562 243.796 411.135 238.287L404.169 235.373Z" fill="url(#paint20_linear_6_236)"/>
<path d="M429.881 229.927C432.858 231.7 434.695 235.563 434.948 240.503C435.391 249.243 430.768 262.732 416.392 274.449C390.363 295.664 383.017 315.297 377.633 329.673C373.77 339.933 371.047 347.279 363.827 352.156C363.891 352.915 364.461 353.675 365.284 354.309C367.627 356.082 370.984 355.575 373.01 353.485C378.71 347.532 381.56 339.996 384.6 331.763C389.983 317.45 396.633 299.591 421.078 279.642C431.908 270.839 443.181 255.703 442.358 239.807C441.978 232.65 438.938 226.824 433.998 223.911C428.741 220.807 423.105 221.631 417.405 224.734L427.412 229.04C428.235 229.23 429.058 229.484 429.881 229.927Z" fill="url(#paint21_linear_6_236)"/>
<path d="M378.774 225.114C374.024 230.624 369.591 236.893 365.854 242.15C364.587 243.986 363.384 245.696 362.244 247.153C361.104 248.736 361.421 251.016 363.004 252.156C364.587 253.359 366.867 252.979 368.007 251.396C369.147 249.876 370.35 248.103 371.68 246.266C375.544 240.82 380.547 233.663 385.74 227.964L378.774 225.114Z" fill="url(#paint22_linear_6_236)"/>
<path d="M403.979 218.844C406.956 220.617 408.982 224.544 409.489 229.674C410.376 238.667 406.576 252.599 393.15 264.822C368.831 286.925 362.687 307.191 358.191 322.01C354.961 332.586 352.681 340.186 345.841 345.316C346.095 347.532 350.465 349.812 353.188 348.356C359.648 341.896 362.244 333.41 365.031 324.1C369.527 309.281 375.1 290.851 397.963 270.142C408.096 260.959 418.292 245.316 416.645 228.977C415.885 221.631 412.592 215.678 407.652 212.701C402.333 209.534 396.886 210.484 391.503 213.714L401.509 218.021C402.396 218.084 403.219 218.337 403.979 218.844Z" fill="url(#paint23_linear_6_236)"/>
<path d="M354.771 262.416C354.771 262.416 353.124 260.389 352.491 257.033C351.668 252.663 352.998 248.103 356.354 243.48C363.131 234.233 368.831 227.584 373.644 223.024L366.361 220.047C360.597 225.937 355.214 232.904 350.528 239.237C341.408 251.713 345.715 262.859 349.261 267.039C350.528 268.559 352.808 268.749 354.328 267.419C355.848 266.152 356.038 263.936 354.771 262.416Z" fill="url(#paint24_linear_6_236)"/>
<path d="M394.036 214.538C396.949 216.311 398.976 220.174 399.483 225.304C400.433 234.55 396.569 248.8 382.953 261.149C358.634 283.252 352.491 303.517 347.995 318.337C344.511 329.926 342.042 337.906 333.555 343.099C334.062 346.266 341.598 347.342 343.181 344.556C349.515 338.096 352.111 329.673 354.898 320.427C359.394 305.607 364.967 287.178 387.83 266.469C398.026 257.159 408.349 241.327 406.639 224.544C405.879 217.071 402.713 211.308 397.709 208.331C392.263 205.101 386.373 205.798 380.483 208.838L392.2 213.778C392.833 213.968 393.466 214.221 394.036 214.538Z" fill="url(#paint25_linear_6_236)"/>
<path d="M314.619 337.146C315.063 339.553 318.989 342.656 323.676 340.883C334.695 334.55 338.242 324.67 342.232 313.524C347.361 299.274 353.758 281.542 377.824 261.719C394.606 247.85 399.609 231.32 398.659 220.491C398.026 213.398 394.986 208.015 390.046 205.228C384.283 201.998 377.57 201.935 370.92 204.785L384.093 210.484C384.917 210.738 385.74 211.054 386.563 211.498C389.35 213.081 391.123 216.501 391.503 221.124C392.706 234.867 382.447 248.61 373.264 256.146C347.678 277.235 340.648 296.804 335.519 311.054C330.959 323.72 327.792 332.46 314.619 337.146Z" fill="url(#paint26_linear_6_236)"/>
<path d="M363.321 218.781L356.228 215.868C355.594 216.564 354.961 217.261 354.391 218.021C344.322 230.37 337.038 236.387 336.848 236.513C335.329 237.78 335.075 239.997 336.278 241.58C337.545 243.1 339.762 243.353 341.345 242.15C341.662 241.897 349.325 235.69 359.964 222.581C361.041 221.251 362.181 219.984 363.321 218.781Z" fill="url(#paint27_linear_6_236)"/>
<path d="M216.393 321.25C220.763 322.327 225.259 322.263 229.249 324.86C231.783 326.506 233.872 327.9 236.912 328.406C239.446 328.786 241.979 328.85 244.512 329.546C250.022 330.94 255.152 334.803 261.105 333.726C263.321 333.346 265.285 332.27 267.121 331.003C269.148 329.673 270.731 328.596 271.744 326.696C267.691 321.123 259.775 315.234 249.832 310.99C239.002 306.431 228.489 304.974 221.65 306.494L217.28 304.657L214.367 311.497C213.1 314.347 213.923 317.704 216.393 321.25Z" fill="#A65200"/>
<path d="M237.039 328.406C239.509 328.786 242.042 328.85 244.449 329.483C249.959 330.876 255.088 334.74 261.041 333.663C263.258 333.283 265.221 332.206 267.058 330.94C269.718 329.166 271.491 327.9 272.441 324.797C272.948 323.023 273.454 321.44 275.164 320.68C271.364 314.79 263.131 308.521 252.618 304.087C236.089 297.121 220.193 297.311 217.153 304.594C214.367 311.244 223.043 321.377 237.039 328.406Z" fill="url(#paint28_linear_6_236)"/>
<path d="M237.736 324.163C239.762 325.303 241.915 326.317 244.005 327.203C251.162 330.243 258.635 332.016 264.905 332.333C265.411 332.08 265.918 331.763 266.425 331.446C258.192 331.383 247.489 328.47 238.179 323.34C230.706 319.223 226.019 314.284 225.893 310.357C225.829 308.774 226.653 307.444 228.236 306.494C232.733 303.707 243.689 305.481 252.618 310.357C257.305 312.89 260.345 316.12 260.345 318.527C260.345 319.477 259.901 320.3 258.951 320.87C256.102 322.58 249.199 321.503 243.562 318.4C240.649 316.817 238.749 314.79 238.686 313.334C238.686 312.764 238.939 312.32 239.509 312.004C241.282 310.927 245.715 311.687 249.199 313.587C251.288 314.727 252.238 315.93 252.238 316.69C252.238 316.88 252.175 317.134 251.795 317.387C250.845 317.957 248.185 317.704 245.779 316.374C244.512 315.677 243.942 314.917 243.942 314.537C243.942 314.474 243.942 314.347 244.132 314.22C244.702 313.904 246.349 314.094 247.805 314.854C248.059 314.98 248.312 314.917 248.439 314.664C248.565 314.41 248.502 314.157 248.249 314.03C246.792 313.207 244.639 312.764 243.625 313.397C243.182 313.65 242.929 314.094 242.992 314.537C242.992 315.424 243.879 316.374 245.335 317.197C247.869 318.59 250.972 319.033 252.302 318.21C252.872 317.83 253.188 317.324 253.188 316.627C253.188 315.36 251.858 313.904 249.642 312.7C245.715 310.547 241.029 309.85 239.002 311.117C238.116 311.624 237.672 312.384 237.736 313.334C237.799 315.234 239.762 317.387 243.119 319.223C249.135 322.517 256.355 323.593 259.521 321.693C260.788 320.933 261.421 319.857 261.421 318.527C261.358 315.74 258.192 312.32 253.188 309.534C244.005 304.467 232.669 302.757 227.856 305.671C225.956 306.811 225.006 308.457 225.069 310.42C225.069 314.6 230.009 319.857 237.736 324.163Z" fill="#A65200"/>
<path d="M190.871 301.301L191.821 293.321L186.691 292.688C181.118 287.558 170.415 283.252 157.812 281.795C145.209 280.275 133.81 281.922 127.16 285.531L122.03 284.898L121.334 290.788C121.524 290.978 121.714 291.231 121.904 291.421C122.727 292.624 122.79 293.828 123.107 295.158C124.183 295.981 125.197 296.868 126.273 297.818C126.653 298.134 126.97 298.578 127.35 298.958C128.743 299.781 129.947 300.857 131.276 301.871C131.783 301.934 132.29 301.997 132.923 302.187C133.62 302.377 134.126 302.694 134.57 303.074C134.76 303.074 134.95 303.137 135.14 303.201C137.23 303.707 138.94 304.784 140.713 305.797C141.156 305.987 141.599 306.177 142.043 306.367C142.359 306.557 142.676 306.747 142.993 306.937C143.753 307.254 144.576 307.571 145.399 307.697C149.579 308.521 153.632 309.977 157.812 310.737C158.889 310.927 159.965 311.117 160.979 311.37C162.055 311.37 163.195 311.307 164.399 311.37C167.122 311.56 170.035 312.257 172.885 312.32C183.018 310.8 190.174 306.811 190.871 301.301Z" fill="#A65200"/>
<path d="M191.821 293.321C190.807 301.807 174.341 306.811 155.089 304.467C135.836 302.124 121.08 293.384 122.094 284.961C123.107 276.538 139.573 271.472 158.825 273.815C178.078 276.095 192.834 284.835 191.821 293.321Z" fill="url(#paint29_linear_6_236)"/>
<path d="M191.757 293.701C191.757 293.574 191.821 293.448 191.821 293.321C191.821 293.131 191.884 292.878 191.884 292.688C191.694 292.561 191.377 292.561 191.187 292.751C185.108 299.401 166.425 301.744 149.579 297.944C140.586 295.918 134.253 292.181 132.986 288.128C132.48 286.481 132.86 284.898 134.253 283.442C138.116 279.198 149.959 277.742 160.725 280.148C166.298 281.415 170.415 283.822 171.238 286.291C171.555 287.305 171.302 288.255 170.478 289.141C168.072 291.801 160.535 292.688 153.759 291.168C150.212 290.345 147.679 288.888 147.173 287.368C146.983 286.798 147.109 286.291 147.616 285.721C149.136 284.075 153.949 283.505 158.129 284.455C160.599 285.025 161.992 286.038 162.182 286.735C162.245 286.925 162.309 287.241 161.929 287.558C161.105 288.445 158.319 288.951 155.406 288.318C153.886 288.001 153.062 287.368 152.936 286.988C152.936 286.925 152.872 286.798 153.062 286.608C153.506 286.101 155.279 285.785 157.052 286.165C157.369 286.228 157.622 286.038 157.685 285.785C157.749 285.531 157.559 285.215 157.305 285.151C155.532 284.771 153.189 284.898 152.239 285.911C151.859 286.355 151.732 286.798 151.922 287.305C152.176 288.191 153.442 288.951 155.152 289.395C158.255 290.091 161.549 289.648 162.752 288.318C163.259 287.748 163.449 287.051 163.259 286.418C162.879 285.088 161.042 283.948 158.382 283.378C153.696 282.302 148.629 282.998 146.793 284.961C146.033 285.785 145.843 286.671 146.096 287.621C146.729 289.585 149.452 291.231 153.442 292.181C160.725 293.828 168.515 292.814 171.238 289.838C172.315 288.635 172.632 287.305 172.252 285.975C171.365 283.125 166.995 280.465 160.979 279.072C149.896 276.602 137.61 278.185 133.493 282.682C131.91 284.455 131.403 286.418 132.036 288.445C133.24 292.181 138.306 295.728 145.589 297.944C146.793 298.324 148.059 298.641 149.452 298.958C166.298 302.821 185.171 300.414 191.757 293.701Z" fill="#A65200"/>
<path d="M562.053 198.198C555.087 199.465 551.73 208.648 551.73 208.648C551.73 208.648 508.475 215.108 507.082 178.122C505.878 147.47 491.819 144.874 483.269 150.763C475.733 155.957 465.727 185.469 485.739 210.738C505.752 236.007 544.574 223.087 554.327 214.474C554.327 214.474 578.962 211.118 581.179 199.275C581.116 199.275 572.819 196.235 562.053 198.198Z" fill="#FFD0A4"/>
<path d="M581.115 199.275C581.115 199.275 572.819 196.235 562.053 198.198C555.086 199.465 551.73 208.648 551.73 208.648C551.73 208.648 548.12 209.154 542.99 209.091C543.687 213.271 542.61 217.641 540.964 221.567C546.853 219.477 551.603 216.817 554.2 214.538C554.263 214.474 578.899 211.054 581.115 199.275Z" fill="url(#paint30_linear_6_236)"/>
<path d="M507.272 180.909C507.208 180.022 507.082 179.072 507.082 178.122C505.878 147.47 491.819 144.874 483.269 150.763C478.013 154.373 471.49 169.953 474.973 187.685C489.539 194.272 501.699 185.975 507.272 180.909Z" fill="url(#paint31_linear_6_236)"/>
<path d="M526.651 206.178C520.698 204.025 515.061 200.288 511.325 193.955C504.928 209.344 491.502 209.471 483.776 208.078C484.409 208.964 485.043 209.788 485.676 210.674C493.212 220.174 503.409 224.291 513.731 225.24C520.508 221.251 524.688 211.814 526.651 206.178Z" fill="url(#paint32_linear_6_236)"/>
<path d="M200.18 196.742C204.234 199.211 204.17 205.798 204.17 205.798C204.17 205.798 229.946 220.364 239.762 197.248C247.932 178.122 257.432 179.896 261.421 185.722C264.905 190.852 264.145 211.878 245.399 223.024C226.653 234.17 205.184 216.627 201.13 208.838C201.13 208.838 186.374 200.731 187.831 192.752C187.894 192.815 193.847 192.878 200.18 196.742Z" fill="#FFD0A4"/>
<path d="M187.894 192.815C187.894 192.815 193.847 192.878 200.18 196.742C204.234 199.211 204.17 205.798 204.17 205.798C204.17 205.798 206.324 207.001 209.553 208.141C208.16 210.611 207.717 213.651 207.78 216.501C204.55 213.714 202.207 210.928 201.13 208.838C201.194 208.901 186.438 200.795 187.894 192.815Z" fill="url(#paint33_linear_6_236)"/>
<path d="M239.002 199.022C239.256 198.452 239.572 197.882 239.826 197.312C247.995 178.186 257.495 179.959 261.485 185.785C263.955 189.332 264.271 200.795 257.812 211.118C246.982 211.751 241.346 203.581 239.002 199.022Z" fill="url(#paint34_linear_6_236)"/>
<path d="M220.7 210.358C225.006 210.421 229.439 209.408 233.302 206.368C233.619 217.641 242.105 220.997 247.299 221.947C246.729 222.327 246.095 222.707 245.462 223.087C238.369 227.267 230.959 227.394 224.183 225.557C220.953 221.314 220.573 214.348 220.7 210.358Z" fill="url(#paint35_linear_6_236)"/>
<path d="M294.86 356.969C276.367 350.446 247.425 350.002 246.222 349.939C245.905 349.939 245.779 350.129 245.905 350.509C246.792 351.269 247.679 352.029 248.502 352.789C250.148 353.485 251.858 353.992 252.998 354.499C257.432 356.525 262.371 356.399 266.741 358.552C275.291 359.502 284.917 361.085 292.454 363.745C299.99 366.405 303.41 370.838 304.993 374.701C307.653 375.145 310.313 375.651 312.909 376.095C311.453 369.318 306.703 361.085 294.86 356.969Z" fill="url(#paint36_linear_6_236)"/>
<path d="M379.913 368.748C379.913 368.748 373.96 364.252 372.567 364.188C371.174 364.062 357.938 362.985 357.748 364.252C357.748 364.378 357.748 364.568 357.874 364.758C359.648 364.505 361.421 364.505 363.194 365.328C365.221 366.278 366.867 367.862 368.577 369.318C373.39 369.571 380.103 369.571 379.913 368.748Z" fill="url(#paint37_linear_6_236)"/>
<path d="M130.2 309.787C132.226 310.927 134.316 311.75 136.406 312.51C136.09 311.244 129.123 306.747 128.363 306.241C127.54 305.734 121.904 305.924 121.904 305.924C121.587 306.177 122.663 307.254 124.183 308.457C126.273 308.077 128.173 308.647 130.2 309.787Z" fill="url(#paint38_linear_6_236)"/>
<path d="M209.87 291.295C209.997 290.598 210.187 289.775 210.313 288.951C209.237 288.255 208.287 287.748 208.033 287.621C207.464 287.305 203.854 288.445 203.854 288.445C203.347 289.078 208.35 292.371 209.363 292.688C209.427 292.688 209.427 292.688 209.49 292.751C209.68 292.245 209.743 291.738 209.87 291.295Z" fill="url(#paint39_linear_6_236)"/>
<path d="M292.454 323.15C293.53 323.087 294.543 323.023 295.683 323.34C297.457 323.847 297.14 323.72 298.913 323.023C299.61 322.77 300.243 322.643 300.94 322.517C302.143 321.44 303.093 320.3 302.65 319.793C302.65 319.793 297.393 317.387 296.823 317.704C296.253 318.02 290.934 321.123 291.757 322.39C291.884 322.707 292.137 322.96 292.454 323.15Z" fill="url(#paint40_linear_6_236)"/>
<path d="M433.301 374.638C433.301 374.638 428.045 372.231 427.475 372.548C427.095 372.738 424.688 374.195 423.295 375.461C423.802 376.221 424.435 376.981 424.752 377.868C424.878 378.248 424.942 378.628 424.942 379.008C426.145 379.514 427.475 379.831 428.045 379.704C429.311 379.388 434.251 375.651 433.301 374.638Z" fill="url(#paint41_linear_6_236)"/>
<path d="M274.594 302.187C274.974 302.377 275.291 302.504 275.671 302.757C277.824 304.024 280.104 305.607 281.307 303.517C281.054 298.451 277.507 288.255 265.855 284.835C258.255 282.618 254.455 284.202 251.035 285.595C248.122 286.798 245.589 287.811 239.889 286.735C224.5 283.822 218.546 288.255 217.723 289.015C220.636 289.711 223.55 290.408 226.399 291.421C227.286 291.738 228.173 291.991 229.123 292.245C231.593 292.118 234.696 292.308 238.749 293.068C246.349 294.524 250.339 292.878 253.505 291.548C256.482 290.345 258.635 289.458 264.081 291.041C271.681 293.258 273.961 299.211 274.594 302.187Z" fill="url(#paint42_linear_6_236)"/>
<path d="M186.438 316.627C187.958 317.387 189.478 317.387 190.997 317.957C192.201 318.4 193.087 319.223 194.291 319.667C195.304 320.11 196.381 320.237 197.394 320.617C198.027 320.87 198.597 321.123 199.104 321.44C200.307 321.693 201.574 322.01 202.904 322.39C205.057 323.087 206.767 323.847 208.16 324.607C209.427 324.987 210.693 325.493 211.833 325.873C213.607 326.506 215.063 326 216.9 326.063C216.9 326.063 216.9 326.063 216.963 326.063C218.293 326.063 219.116 324.543 218.293 323.53C216.266 320.997 212.467 317.83 205.31 315.614C196.571 312.89 189.478 313.65 185.994 314.347C185.108 314.537 184.918 315.677 185.678 316.12C185.931 316.374 186.184 316.5 186.438 316.627Z" fill="url(#paint43_linear_6_236)"/>
<path d="M183.018 319.667C184.538 320.49 186.121 320.617 187.641 321.25C188.844 321.757 189.794 322.643 190.934 323.15C191.947 323.593 193.087 323.783 194.101 324.227C194.734 324.48 195.304 324.797 195.811 325.177C197.014 325.493 198.344 325.873 199.674 326.317C201.89 327.14 203.6 327.963 204.994 328.85C206.324 329.293 207.59 329.926 208.73 330.37C210.503 331.066 211.96 330.686 213.86 330.813C215 330.876 215.95 330.94 216.9 330.94C215.697 328.406 212.15 323.213 202.08 319.603C190.491 315.36 181.878 317.45 180.358 317.894C181.308 318.463 182.068 319.16 183.018 319.667Z" fill="url(#paint44_linear_6_236)"/>
<path fill-rule="evenodd" clip-rule="evenodd" d="M329.882 351.142C335.518 353.485 339.318 357.095 338.622 359.502C338.622 359.502 337.735 361.972 334.695 362.542H334.632H334.569C332.225 363.048 328.615 362.542 324.816 360.958C319.306 358.742 315.633 355.259 316.013 352.852C316.013 352.852 316.393 349.622 321.332 349.369C323.612 349.242 326.652 349.812 329.882 351.142ZM318.356 351.965C317.596 353.865 321.459 356.905 326.652 358.995C331.845 361.148 336.722 361.655 337.482 359.819C338.305 357.855 334.569 354.435 329.375 352.345C324.182 350.192 319.116 350.066 318.356 351.965Z" fill="#4A9500"/>
<path d="M394.226 377.551C389.286 377.804 388.97 381.034 388.97 381.034C388.78 382.048 389.413 383.314 390.553 384.581C391.946 384.644 393.403 384.707 394.796 384.771C392.263 383.124 390.806 381.414 391.313 380.211C392.073 378.311 397.139 378.438 402.333 380.591C405.372 381.858 407.969 383.568 409.362 385.087C409.869 385.087 410.376 385.087 410.882 385.087C409.552 383.124 406.639 380.971 402.776 379.388C399.546 377.994 396.506 377.424 394.226 377.551Z" fill="#4A9500"/>
<path fill-rule="evenodd" clip-rule="evenodd" d="M235.076 334.613C240.902 336.513 244.955 339.806 244.449 342.276C244.449 342.276 243.815 344.809 240.776 345.632H240.712H240.649C238.369 346.329 234.759 346.076 230.833 344.809C225.133 343.036 221.206 339.869 221.396 337.399C221.396 337.399 221.523 334.17 226.399 333.536C228.679 333.22 231.783 333.536 235.076 334.613ZM223.676 336.323C223.043 338.286 227.159 341.009 232.479 342.719C237.799 344.429 242.739 344.556 243.372 342.593C244.005 340.629 240.016 337.526 234.696 335.816C229.376 334.106 224.309 334.36 223.676 336.323Z" fill="#4A9500"/>
<path fill-rule="evenodd" clip-rule="evenodd" d="M279.217 307.381C283.651 308.774 286.69 311.244 286.31 313.144C286.31 313.144 285.804 315.107 283.587 315.74H283.524H283.461C281.687 316.247 278.964 316.057 275.987 315.107C271.681 313.714 268.641 311.307 268.831 309.471C268.831 309.471 268.894 307.064 272.631 306.557C274.341 306.304 276.684 306.557 279.217 307.381ZM270.541 308.711C270.034 310.167 273.138 312.257 277.191 313.524C281.244 314.79 284.98 314.917 285.487 313.46C285.93 312.004 282.954 309.597 278.901 308.331C274.848 307.064 271.048 307.191 270.541 308.711Z" fill="#4A9500"/>
<path d="M135.013 148.737C135.013 148.737 96.8245 137.084 73.8354 132.017C73.8354 132.017 70.6055 160.706 69.8456 173.309C68.5789 194.082 71.1122 209.344 71.1122 209.344L140.206 221.061C140.206 221.061 136.09 205.545 134.76 184.582C133.43 163.62 135.013 148.737 135.013 148.737Z" fill="url(#paint45_linear_6_236)"/>
<g opacity="0.5">
<path d="M97.0145 137.844C88.9081 135.627 80.6751 133.537 73.8354 132.017C73.8354 132.017 70.6055 160.706 69.8456 173.309C68.5789 194.082 71.1122 209.344 71.1122 209.344L100.308 214.284C97.7745 209.914 92.2014 208.204 88.9715 204.341C86.1849 200.985 85.425 196.235 86.5016 192.055C87.5782 187.875 90.3648 184.202 93.7846 181.542C98.5978 177.869 104.488 176.032 110.251 174.196C111.517 173.816 112.784 173.373 113.671 172.486C114.62 171.599 115.064 170.079 114.367 168.939C113.861 168.179 112.974 167.799 112.087 167.483C107.717 165.836 103.284 164.19 98.9144 162.606C94.1646 160.833 88.7815 158.363 87.7682 153.36C86.8816 149.053 89.8581 145 92.898 141.897C94.1646 140.504 95.5579 139.111 97.0145 137.844Z" fill="#2D3B1C"/>
</g>
<path d="M234.126 411.053C234.126 410.99 234.506 403.643 242.675 387.494C249.009 375.081 250.908 365.265 248.185 359.059C246.919 356.145 244.639 354.182 241.662 353.359C236.026 351.839 231.719 354.879 229.503 357.475C234.126 358.742 239.762 360.262 239.762 360.262C240.649 360.515 241.219 361.022 241.599 361.972C242.232 363.428 243.815 369.445 236.279 384.264C227.349 401.807 226.969 410.04 226.906 410.926C226.906 412.446 227.793 413.776 229.123 414.346C229.503 414.536 229.946 414.6 230.389 414.6C232.479 414.6 234.126 413.016 234.126 411.053Z" fill="url(#paint46_linear_6_236)"/>
<path opacity="0.2" d="M546.79 219.097C530.197 220.807 503.789 220.301 493.086 201.998C481.433 182.049 487.259 159.25 491.376 148.167C488.462 148.04 485.613 149.053 483.206 150.7C475.67 155.893 465.663 185.405 485.676 210.674C502.205 231.574 531.591 226.444 546.79 219.097Z" fill="#FB8000"/>
<path opacity="0.2" d="M245.462 223.087C253.632 218.274 258.382 211.561 260.851 205.101C256.102 217.387 241.092 223.847 226.209 221.124C211.263 218.401 201.257 208.901 197.141 202.821C193.024 196.742 187.958 192.815 187.958 192.815C186.501 200.795 201.257 208.901 201.257 208.901C205.31 216.691 226.716 234.233 245.462 223.087Z" fill="#FB8000"/>
<defs>
<linearGradient id="paint0_linear_6_236" x1="-75.553" y1="424.884" x2="155.879" y2="717.399" gradientUnits="userSpaceOnUse">
<stop stop-color="#2A1617"/>
<stop offset="1" stop-color="#614444"/>
</linearGradient>
<radialGradient id="paint1_radial_6_236" cx="0" cy="0" r="1" gradientUnits="userSpaceOnUse" gradientTransform="translate(333.463 387.027) rotate(22.1569) scale(233.709 172.348)">
<stop stop-color="#614444"/>
<stop offset="1" stop-color="#2A1617"/>
</radialGradient>
<linearGradient id="paint2_linear_6_236" x1="369.117" y1="474.976" x2="465.214" y2="525.928" gradientUnits="userSpaceOnUse">
<stop offset="0.2446" stop-color="#2A1617" stop-opacity="0.2"/>
<stop offset="0.5693" stop-color="#271314" stop-opacity="0.5444"/>
<stop offset="0.8338" stop-color="#1D0A0A" stop-opacity="0.825"/>
<stop offset="0.9987" stop-color="#120000"/>
</linearGradient>
<linearGradient id="paint3_linear_6_236" x1="20.259" y1="498.8" x2="250.391" y2="548.138" gradientUnits="userSpaceOnUse">
<stop offset="0.00128845" stop-color="#120000"/>
<stop offset="0.1618" stop-color="#1C090A" stop-opacity="0.8297"/>
<stop offset="0.4362" stop-color="#271314" stop-opacity="0.5387"/>
<stop offset="0.7554" stop-color="#2A1617" stop-opacity="0.2"/>
</linearGradient>
<linearGradient id="paint4_linear_6_236" x1="-140.521" y1="304.375" x2="-70.7782" y2="554.362" gradientUnits="userSpaceOnUse">
<stop stop-color="#7D5A56"/>
<stop offset="1" stop-color="#614444"/>
</linearGradient>
<linearGradient id="paint5_linear_6_236" x1="-125.514" y1="303.864" x2="-61.7735" y2="540.622" gradientUnits="userSpaceOnUse">
<stop stop-color="#614444"/>
<stop offset="0.0511097" stop-color="#5A3E3E"/>
<stop offset="0.2999" stop-color="#3C2323"/>
<stop offset="0.5444" stop-color="#261010"/>
<stop offset="0.7809" stop-color="#190404"/>
<stop offset="1" stop-color="#150000"/>
</linearGradient>
<linearGradient id="paint6_linear_6_236" x1="-175.532" y1="300.112" x2="-130.096" y2="508.165" gradientUnits="userSpaceOnUse">
<stop stop-color="#FFCB1E"/>
<stop offset="0.094509" stop-color="#FECC2A"/>
<stop offset="0.7133" stop-color="#F5D376"/>
<stop offset="0.9987" stop-color="#F2D694"/>
</linearGradient>
<linearGradient id="paint7_linear_6_236" x1="179.352" y1="287.081" x2="226.08" y2="335.758" gradientUnits="userSpaceOnUse">
<stop stop-color="#FFDF86"/>
<stop offset="1" stop-color="#FFC83E"/>
</linearGradient>
<linearGradient id="paint8_linear_6_236" x1="62.8139" y1="338.714" x2="88.5218" y2="455.186" gradientUnits="userSpaceOnUse">
<stop stop-color="#E4B135"/>
<stop offset="0.1583" stop-color="#E5B43D"/>
<stop offset="0.4031" stop-color="#E8BD53"/>
<stop offset="0.702" stop-color="#EECA76"/>
<stop offset="0.9189" stop-color="#F2D694"/>
</linearGradient>
<linearGradient id="paint9_linear_6_236" x1="-37.1959" y1="225.857" x2="-37.0983" y2="226.091" gradientUnits="userSpaceOnUse">
<stop stop-color="#FFDF86"/>
<stop offset="1" stop-color="#FFC83E"/>
</linearGradient>
<linearGradient id="paint10_linear_6_236" x1="232.665" y1="121.208" x2="327.054" y2="181.793" gradientUnits="userSpaceOnUse">
<stop stop-color="#3F522A"/>
<stop offset="0.2676" stop-color="#3E4D2E"/>
<stop offset="1" stop-color="#3D4337"/>
</linearGradient>
<linearGradient id="paint11_linear_6_236" x1="-163.808" y1="150.945" x2="80.6216" y2="501.162" gradientUnits="userSpaceOnUse">
<stop stop-color="#C50000"/>
<stop offset="0.1629" stop-color="#CC1106"/>
<stop offset="0.4988" stop-color="#D82E11"/>
<stop offset="0.7895" stop-color="#DF4018"/>
<stop offset="1" stop-color="#E2461A"/>
</linearGradient>
<linearGradient id="paint12_linear_6_236" x1="-215.496" y1="163.649" x2="-49.4469" y2="505.338" gradientUnits="userSpaceOnUse">
<stop stop-color="#C50000"/>
<stop offset="0.1629" stop-color="#CC1106"/>
<stop offset="0.4988" stop-color="#D82E11"/>
<stop offset="0.7895" stop-color="#DF4018"/>
<stop offset="1" stop-color="#E2461A"/>
</linearGradient>
<linearGradient id="paint13_linear_6_236" x1="137.71" y1="488.476" x2="182.552" y2="491.085" gradientUnits="userSpaceOnUse">
<stop stop-color="#FFDF86"/>
<stop offset="1" stop-color="#FFC83E"/>
</linearGradient>
<linearGradient id="paint14_linear_6_236" x1="115.922" y1="450.12" x2="160.089" y2="454.633" gradientUnits="userSpaceOnUse">
<stop stop-color="#FFDF86"/>
<stop offset="1" stop-color="#FFC83E"/>
</linearGradient>
<linearGradient id="paint15_linear_6_236" x1="174.312" y1="429.226" x2="203.209" y2="433.212" gradientUnits="userSpaceOnUse">
<stop stop-color="#FFDF86"/>
<stop offset="1" stop-color="#FFC83E"/>
</linearGradient>
<linearGradient id="paint16_linear_6_236" x1="279.738" y1="311.106" x2="349.362" y2="341.176" gradientUnits="userSpaceOnUse">
<stop stop-color="white"/>
<stop offset="1" stop-color="#D8D8D8"/>
</linearGradient>
<linearGradient id="paint17_linear_6_236" x1="288.3" y1="317.317" x2="321.336" y2="345.262" gradientUnits="userSpaceOnUse">
<stop stop-color="#FF8F00"/>
<stop offset="0.4035" stop-color="#FF9800"/>
<stop offset="1" stop-color="#FFAE00"/>
</linearGradient>
<linearGradient id="paint18_linear_6_236" x1="352.987" y1="339.122" x2="424.385" y2="366.595" gradientUnits="userSpaceOnUse">
<stop stop-color="white"/>
<stop offset="1" stop-color="#D8D8D8"/>
</linearGradient>
<linearGradient id="paint19_linear_6_236" x1="363.066" y1="347.719" x2="405.2" y2="368.016" gradientUnits="userSpaceOnUse">
<stop stop-color="#FF8F00"/>
<stop offset="0.4035" stop-color="#FF9800"/>
<stop offset="1" stop-color="#FFAE00"/>
</linearGradient>
<linearGradient id="paint20_linear_6_236" x1="388.208" y1="253.691" x2="401.941" y2="258.843" gradientUnits="userSpaceOnUse">
<stop stop-color="#FFDF86"/>
<stop offset="1" stop-color="#FFC83E"/>
</linearGradient>
<linearGradient id="paint21_linear_6_236" x1="384.703" y1="310.881" x2="416.846" y2="315.419" gradientUnits="userSpaceOnUse">
<stop stop-color="#FFDF86"/>
<stop offset="1" stop-color="#FFC83E"/>
</linearGradient>
<linearGradient id="paint22_linear_6_236" x1="364.005" y1="244.671" x2="377.972" y2="248.987" gradientUnits="userSpaceOnUse">
<stop stop-color="#FFDF86"/>
<stop offset="1" stop-color="#FFC83E"/>
</linearGradient>
<linearGradient id="paint23_linear_6_236" x1="363.141" y1="305.638" x2="395.13" y2="309.081" gradientUnits="userSpaceOnUse">
<stop stop-color="#FFDF86"/>
<stop offset="1" stop-color="#FFC83E"/>
</linearGradient>
<linearGradient id="paint24_linear_6_236" x1="347.331" y1="252.874" x2="362.889" y2="255.093" gradientUnits="userSpaceOnUse">
<stop stop-color="#FFDF86"/>
<stop offset="1" stop-color="#FFC83E"/>
</linearGradient>
<linearGradient id="paint25_linear_6_236" x1="351.43" y1="302.599" x2="384.572" y2="306.298" gradientUnits="userSpaceOnUse">
<stop stop-color="#FFDF86"/>
<stop offset="1" stop-color="#FFC83E"/>
</linearGradient>
<linearGradient id="paint26_linear_6_236" x1="338.387" y1="297.094" x2="374.655" y2="302.53" gradientUnits="userSpaceOnUse">
<stop stop-color="#FFDF86"/>
<stop offset="1" stop-color="#FFC83E"/>
</linearGradient>
<linearGradient id="paint27_linear_6_236" x1="336.847" y1="234.848" x2="353.687" y2="242.095" gradientUnits="userSpaceOnUse">
<stop stop-color="#FFDF86"/>
<stop offset="1" stop-color="#FFC83E"/>
</linearGradient>
<linearGradient id="paint28_linear_6_236" x1="198.146" y1="321.457" x2="233.206" y2="361.708" gradientUnits="userSpaceOnUse">
<stop stop-color="#CD7100"/>
<stop offset="0.4905" stop-color="#C16A00"/>
<stop offset="0.9987" stop-color="#B96600"/>
</linearGradient>
<linearGradient id="paint29_linear_6_236" x1="97.1455" y1="290.63" x2="120.58" y2="336.626" gradientUnits="userSpaceOnUse">
<stop stop-color="#CD7100"/>
<stop offset="0.4905" stop-color="#C16A00"/>
<stop offset="0.9987" stop-color="#B96600"/>
</linearGradient>
<linearGradient id="paint30_linear_6_236" x1="535.141" y1="212.698" x2="553.934" y2="234.062" gradientUnits="userSpaceOnUse">
<stop stop-color="#FF8F00"/>
<stop offset="0.4035" stop-color="#FF9800"/>
<stop offset="1" stop-color="#FFAE00"/>
</linearGradient>
<linearGradient id="paint31_linear_6_236" x1="469.999" y1="185.248" x2="504.38" y2="194.083" gradientUnits="userSpaceOnUse">
<stop stop-color="#FF8F00"/>
<stop offset="0.4035" stop-color="#FF9800"/>
<stop offset="1" stop-color="#FFAE00"/>
</linearGradient>
<linearGradient id="paint32_linear_6_236" x1="476.905" y1="213.482" x2="506.835" y2="236.368" gradientUnits="userSpaceOnUse">
<stop stop-color="#FF8F00"/>
<stop offset="0.4035" stop-color="#FF9800"/>
<stop offset="1" stop-color="#FFAE00"/>
</linearGradient>
<linearGradient id="paint33_linear_6_236" x1="180.708" y1="212.711" x2="206.648" y2="221.625" gradientUnits="userSpaceOnUse">
<stop stop-color="#FF8F00"/>
<stop offset="0.4035" stop-color="#FF9800"/>
<stop offset="1" stop-color="#FFAE00"/>
</linearGradient>
<linearGradient id="paint34_linear_6_236" x1="238.681" y1="204.068" x2="260.223" y2="209.995" gradientUnits="userSpaceOnUse">
<stop stop-color="#FF8F00"/>
<stop offset="0.4035" stop-color="#FF9800"/>
<stop offset="1" stop-color="#FFAE00"/>
</linearGradient>
<linearGradient id="paint35_linear_6_236" x1="212.743" y1="222.561" x2="235.95" y2="238.779" gradientUnits="userSpaceOnUse">
<stop stop-color="#FF8F00"/>
<stop offset="0.4035" stop-color="#FF9800"/>
<stop offset="1" stop-color="#FFAE00"/>
</linearGradient>
<linearGradient id="paint36_linear_6_236" x1="-38.3645" y1="228.7" x2="-38.2792" y2="228.929" gradientUnits="userSpaceOnUse">
<stop stop-color="#FFDF86"/>
<stop offset="1" stop-color="#FFC83E"/>
</linearGradient>
<linearGradient id="paint37_linear_6_236" x1="343.339" y1="364.791" x2="345.384" y2="376.185" gradientUnits="userSpaceOnUse">
<stop stop-color="#C50000"/>
<stop offset="0.1629" stop-color="#CC1106"/>
<stop offset="0.4988" stop-color="#D82E11"/>
<stop offset="0.7895" stop-color="#DF4018"/>
<stop offset="1" stop-color="#E2461A"/>
</linearGradient>
<linearGradient id="paint38_linear_6_236" x1="115.741" y1="309.03" x2="121.458" y2="319.661" gradientUnits="userSpaceOnUse">
<stop stop-color="#C50000"/>
<stop offset="0.1629" stop-color="#CC1106"/>
<stop offset="0.4988" stop-color="#D82E11"/>
<stop offset="0.7895" stop-color="#DF4018"/>
<stop offset="1" stop-color="#E2461A"/>
</linearGradient>
<linearGradient id="paint39_linear_6_236" x1="202.396" y1="290.797" x2="208.145" y2="294.267" gradientUnits="userSpaceOnUse">
<stop stop-color="#C50000"/>
<stop offset="0.1629" stop-color="#CC1106"/>
<stop offset="0.4988" stop-color="#D82E11"/>
<stop offset="0.7895" stop-color="#DF4018"/>
<stop offset="1" stop-color="#E2461A"/>
</linearGradient>
<linearGradient id="paint40_linear_6_236" x1="289.332" y1="321.939" x2="294.308" y2="328.537" gradientUnits="userSpaceOnUse">
<stop stop-color="#C50000"/>
<stop offset="0.1629" stop-color="#CC1106"/>
<stop offset="0.4988" stop-color="#D82E11"/>
<stop offset="0.7895" stop-color="#DF4018"/>
<stop offset="1" stop-color="#E2461A"/>
</linearGradient>
<linearGradient id="paint41_linear_6_236" x1="421.31" y1="377.627" x2="428.433" y2="383.027" gradientUnits="userSpaceOnUse">
<stop stop-color="#C50000"/>
<stop offset="0.1629" stop-color="#CC1106"/>
<stop offset="0.4988" stop-color="#D82E11"/>
<stop offset="0.7895" stop-color="#DF4018"/>
<stop offset="1" stop-color="#E2461A"/>
</linearGradient>
<linearGradient id="paint42_linear_6_236" x1="184.797" y1="288.428" x2="194.621" y2="325.802" gradientUnits="userSpaceOnUse">
<stop stop-color="#FFDF86"/>
<stop offset="1" stop-color="#FFC83E"/>
</linearGradient>
<linearGradient id="paint43_linear_6_236" x1="169.115" y1="318.205" x2="176.497" y2="339.669" gradientUnits="userSpaceOnUse">
<stop stop-color="#FFDF86"/>
<stop offset="1" stop-color="#FFC83E"/>
</linearGradient>
<linearGradient id="paint44_linear_6_236" x1="167.226" y1="318.927" x2="171.022" y2="324.477" gradientUnits="userSpaceOnUse">
<stop stop-color="#FFDF86"/>
<stop offset="1" stop-color="#FFC83E"/>
</linearGradient>
<linearGradient id="paint45_linear_6_236" x1="48.4354" y1="218.35" x2="138.947" y2="240.308" gradientUnits="userSpaceOnUse">
<stop stop-color="#3F522A"/>
<stop offset="0.2676" stop-color="#3E4D2E"/>
<stop offset="1" stop-color="#3D4337"/>
</linearGradient>
<linearGradient id="paint46_linear_6_236" x1="-53.4803" y1="266.584" x2="-53.141" y2="266.603" gradientUnits="userSpaceOnUse">
<stop stop-color="#FFDF86"/>
<stop offset="1" stop-color="#FFC83E"/>
</linearGradient>
</defs>
</svg>
